<?xml version="1.0" encoding="UTF-8" standalone="no"?>
<!DOCTYPE svg PUBLIC "-//W3C//DTD SVG 1.1//EN"
 "http://www.w3.org/Graphics/SVG/1.1/DTD/svg11.dtd">
<!-- Generated by graphviz version 2.40.1 (20161225.0304)
 -->
<!-- Title: dependencies Pages: 1 -->
<svg width="2508pt" height="211pt"
 viewBox="0.00 0.00 2508.00 211.00" xmlns="http://www.w3.org/2000/svg" xmlns:xlink="http://www.w3.org/1999/xlink">
<g id="graph0" class="graph" transform="scale(1 1) rotate(0) translate(4 207)">
<title>dependencies</title>
<polygon fill="#ffffff" stroke="transparent" points="-4,4 -4,-207 2504,-207 2504,4 -4,4"/>
<text text-anchor="start" x="1229.0091" y="-42.4" font-family="sans-serif" font-weight="bold" font-size="14.00" fill="#000000">Legend</text>
<polygon fill="#ffffb3" stroke="transparent" points="1016,-10 1016,-30 1036,-30 1036,-10 1016,-10"/>
<text text-anchor="start" x="1039.629" y="-15.4" font-family="sans-serif" font-size="14.00" fill="#000000"> &#160;Declarations</text>
<polygon fill="#8dd3c7" stroke="transparent" points="1129,-10 1129,-30 1149,-30 1149,-10 1129,-10"/>
<text text-anchor="start" x="1152.7251" y="-15.4" font-family="sans-serif" font-size="14.00" fill="#000000"> &#160;Module</text>
<polygon fill="#80b1d3" stroke="transparent" points="1215,-10 1215,-30 1235,-30 1235,-10 1215,-10"/>
<text text-anchor="start" x="1238.7812" y="-15.4" font-family="sans-serif" font-size="14.00" fill="#000000"> &#160;Bootstrap</text>
<polygon fill="#fdb462" stroke="transparent" points="1312,-10 1312,-30 1332,-30 1332,-10 1312,-10"/>
<text text-anchor="start" x="1335.6732" y="-15.4" font-family="sans-serif" font-size="14.00" fill="#000000"> &#160;Providers</text>
<polygon fill="#fb8072" stroke="transparent" points="1408,-10 1408,-30 1428,-30 1428,-10 1408,-10"/>
<text text-anchor="start" x="1431.7258" y="-15.4" font-family="sans-serif" font-size="14.00" fill="#000000"> &#160;Exports</text>
<g id="clust1" class="cluster">
<title>cluster_BranchModule</title>
<polygon fill="none" stroke="#000000" stroke-dasharray="1,5" points="8,-70 8,-195 2492,-195 2492,-70 8,-70"/>
</g>
<g id="clust2" class="cluster">
<title>cluster_BranchModule_declarations</title>
<polygon fill="none" stroke="#000000" points="186,-78 186,-130 2484,-130 2484,-78 186,-78"/>
</g>
<g id="clust16" class="cluster">
<title>cluster_BranchModule_imports</title>
<polygon fill="none" stroke="#000000" points="16,-78 16,-130 178,-130 178,-78 16,-78"/>
</g>
<!-- AddBatchesComponent -->
<g id="node1" class="node">
<title>AddBatchesComponent</title>
<polygon fill="#ffffb3" stroke="#000000" points="2475.7548,-122 2326.2452,-122 2326.2452,-86 2475.7548,-86 2475.7548,-122"/>
<text text-anchor="middle" x="2401" y="-99.8" font-family="Times,serif" font-size="14.00" fill="#000000">AddBatchesComponent</text>
</g>
<!-- BranchModule -->
<g id="node14" class="node">
<title>BranchModule</title>
<polygon fill="#8dd3c7" stroke="#000000" points="1341.9762,-187 1338.9762,-191 1317.9762,-191 1314.9762,-187 1242.0238,-187 1242.0238,-151 1341.9762,-151 1341.9762,-187"/>
<text text-anchor="middle" x="1292" y="-164.8" font-family="Times,serif" font-size="14.00" fill="#000000">BranchModule</text>
</g>
<!-- AddBatchesComponent&#45;&gt;BranchModule -->
<g id="edge1" class="edge">
<title>AddBatchesComponent&#45;&gt;BranchModule</title>
<path fill="none" stroke="#000000" d="M2401,-122.0908C2401,-145.1328 2401,-182 2401,-182 2401,-182 1352.1689,-182 1352.1689,-182"/>
<polygon fill="#000000" stroke="#000000" points="1352.169,-178.5001 1342.1689,-182 1352.1689,-185.5001 1352.169,-178.5001"/>
</g>
<!-- AddCourseComponent -->
<g id="node2" class="node">
<title>AddCourseComponent</title>
<polygon fill="#ffffb3" stroke="#000000" points="2308.5954,-122 2163.4046,-122 2163.4046,-86 2308.5954,-86 2308.5954,-122"/>
<text text-anchor="middle" x="2236" y="-99.8" font-family="Times,serif" font-size="14.00" fill="#000000">AddCourseComponent</text>
</g>
<!-- AddCourseComponent&#45;&gt;BranchModule -->
<g id="edge2" class="edge">
<title>AddCourseComponent&#45;&gt;BranchModule</title>
<path fill="none" stroke="#000000" d="M2236,-122.0449C2236,-143.6623 2236,-177 2236,-177 2236,-177 1352.087,-177 1352.087,-177"/>
<polygon fill="#000000" stroke="#000000" points="1352.0871,-173.5001 1342.087,-177 1352.087,-180.5001 1352.0871,-173.5001"/>
</g>
<!-- AddEmployeeComponent -->
<g id="node3" class="node">
<title>AddEmployeeComponent</title>
<polygon fill="#ffffb3" stroke="#000000" points="2145.2021,-122 1982.7979,-122 1982.7979,-86 2145.2021,-86 2145.2021,-122"/>
<text text-anchor="middle" x="2064" y="-99.8" font-family="Times,serif" font-size="14.00" fill="#000000">AddEmployeeComponent</text>
</g>
<!-- AddEmployeeComponent&#45;&gt;BranchModule -->
<g id="edge3" class="edge">
<title>AddEmployeeComponent&#45;&gt;BranchModule</title>
<path fill="none" stroke="#000000" d="M2064,-122.2228C2064,-142.3652 2064,-172 2064,-172 2064,-172 1352.0582,-172 1352.0582,-172"/>
<polygon fill="#000000" stroke="#000000" points="1352.0583,-168.5001 1342.0582,-172 1352.0582,-175.5001 1352.0583,-168.5001"/>
</g>
<!-- BranchConfComponent -->
<g id="node4" class="node">
<title>BranchConfComponent</title>
<polygon fill="#ffffb3" stroke="#000000" points="1964.7562,-122 1815.2438,-122 1815.2438,-86 1964.7562,-86 1964.7562,-122"/>
<text text-anchor="middle" x="1890" y="-99.8" font-family="Times,serif" font-size="14.00" fill="#000000">BranchConfComponent</text>
</g>
<!-- BranchConfComponent&#45;&gt;BranchModule -->
<g id="edge4" class="edge">
<title>BranchConfComponent&#45;&gt;BranchModule</title>
<path fill="none" stroke="#000000" d="M1890,-122.2222C1890,-140.8285 1890,-167 1890,-167 1890,-167 1352.2129,-167 1352.2129,-167"/>
<polygon fill="#000000" stroke="#000000" points="1352.2129,-163.5001 1342.2129,-167 1352.2129,-170.5001 1352.2129,-163.5001"/>
</g>
<!-- DiscountComponent -->
<g id="node5" class="node">
<title>DiscountComponent</title>
<polygon fill="#ffffb3" stroke="#000000" points="1796.8795,-122 1665.1205,-122 1665.1205,-86 1796.8795,-86 1796.8795,-122"/>
<text text-anchor="middle" x="1731" y="-99.8" font-family="Times,serif" font-size="14.00" fill="#000000">DiscountComponent</text>
</g>
<!-- DiscountComponent&#45;&gt;BranchModule -->
<g id="edge5" class="edge">
<title>DiscountComponent&#45;&gt;BranchModule</title>
<path fill="none" stroke="#000000" d="M1731,-122.0336C1731,-139.0597 1731,-162 1731,-162 1731,-162 1352.3589,-162 1352.3589,-162"/>
<polygon fill="#000000" stroke="#000000" points="1352.3589,-158.5001 1342.3589,-162 1352.3588,-165.5001 1352.3589,-158.5001"/>
</g>
<!-- ManageBatchComponent -->
<g id="node6" class="node">
<title>ManageBatchComponent</title>
<polygon fill="#ffffb3" stroke="#000000" points="1647.5772,-122 1488.4228,-122 1488.4228,-86 1647.5772,-86 1647.5772,-122"/>
<text text-anchor="middle" x="1568" y="-99.8" font-family="Times,serif" font-size="14.00" fill="#000000">ManageBatchComponent</text>
</g>
<!-- ManageBatchComponent&#45;&gt;BranchModule -->
<g id="edge6" class="edge">
<title>ManageBatchComponent&#45;&gt;BranchModule</title>
<path fill="none" stroke="#000000" d="M1568,-122.2396C1568,-137.5706 1568,-157 1568,-157 1568,-157 1351.9815,-157 1351.9815,-157"/>
<polygon fill="#000000" stroke="#000000" points="1351.9816,-153.5001 1341.9815,-157 1351.9815,-160.5001 1351.9816,-153.5001"/>
</g>
<!-- ManageCourseComponent -->
<g id="node7" class="node">
<title>ManageCourseComponent</title>
<polygon fill="#ffffb3" stroke="#000000" points="1470.0772,-122 1303.9228,-122 1303.9228,-86 1470.0772,-86 1470.0772,-122"/>
<text text-anchor="middle" x="1387" y="-99.8" font-family="Times,serif" font-size="14.00" fill="#000000">ManageCourseComponent</text>
</g>
<!-- ManageCourseComponent&#45;&gt;BranchModule -->
<g id="edge7" class="edge">
<title>ManageCourseComponent&#45;&gt;BranchModule</title>
<path fill="none" stroke="#000000" d="M1322.9747,-122.1061C1322.9747,-122.1061 1322.9747,-140.991 1322.9747,-140.991"/>
<polygon fill="#000000" stroke="#000000" points="1319.4748,-140.9909 1322.9747,-150.991 1326.4748,-140.991 1319.4748,-140.9909"/>
</g>
<!-- ManageDiscountComponent -->
<g id="node8" class="node">
<title>ManageDiscountComponent</title>
<polygon fill="#ffffb3" stroke="#000000" points="1285.4678,-122 1108.5322,-122 1108.5322,-86 1285.4678,-86 1285.4678,-122"/>
<text text-anchor="middle" x="1197" y="-99.8" font-family="Times,serif" font-size="14.00" fill="#000000">ManageDiscountComponent</text>
</g>
<!-- ManageDiscountComponent&#45;&gt;BranchModule -->
<g id="edge8" class="edge">
<title>ManageDiscountComponent&#45;&gt;BranchModule</title>
<path fill="none" stroke="#000000" d="M1263.7479,-122.1061C1263.7479,-122.1061 1263.7479,-140.991 1263.7479,-140.991"/>
<polygon fill="#000000" stroke="#000000" points="1260.248,-140.9909 1263.7479,-150.991 1267.248,-140.991 1260.248,-140.9909"/>
</g>
<!-- ManageEmployeeComponent -->
<g id="node9" class="node">
<title>ManageEmployeeComponent</title>
<polygon fill="#ffffb3" stroke="#000000" points="1090.6839,-122 907.3161,-122 907.3161,-86 1090.6839,-86 1090.6839,-122"/>
<text text-anchor="middle" x="999" y="-99.8" font-family="Times,serif" font-size="14.00" fill="#000000">ManageEmployeeComponent</text>
</g>
<!-- ManageEmployeeComponent&#45;&gt;BranchModule -->
<g id="edge9" class="edge">
<title>ManageEmployeeComponent&#45;&gt;BranchModule</title>
<path fill="none" stroke="#000000" d="M999,-122.2396C999,-137.5706 999,-157 999,-157 999,-157 1231.9644,-157 1231.9644,-157"/>
<polygon fill="#000000" stroke="#000000" points="1231.9645,-160.5001 1241.9644,-157 1231.9644,-153.5001 1231.9645,-160.5001"/>
</g>
<!-- ManageReceiptComponent -->
<g id="node10" class="node">
<title>ManageReceiptComponent</title>
<polygon fill="#ffffb3" stroke="#000000" points="889.6825,-122 720.3175,-122 720.3175,-86 889.6825,-86 889.6825,-122"/>
<text text-anchor="middle" x="805" y="-99.8" font-family="Times,serif" font-size="14.00" fill="#000000">ManageReceiptComponent</text>
</g>
<!-- ManageReceiptComponent&#45;&gt;BranchModule -->
<g id="edge10" class="edge">
<title>ManageReceiptComponent&#45;&gt;BranchModule</title>
<path fill="none" stroke="#000000" d="M805,-122.0336C805,-139.0597 805,-162 805,-162 805,-162 1231.7167,-162 1231.7167,-162"/>
<polygon fill="#000000" stroke="#000000" points="1231.7167,-165.5001 1241.7167,-162 1231.7167,-158.5001 1231.7167,-165.5001"/>
</g>
<!-- ReceiptConfComponent -->
<g id="node11" class="node">
<title>ReceiptConfComponent</title>
<polygon fill="#ffffb3" stroke="#000000" points="702.0912,-122 549.9088,-122 549.9088,-86 702.0912,-86 702.0912,-122"/>
<text text-anchor="middle" x="626" y="-99.8" font-family="Times,serif" font-size="14.00" fill="#000000">ReceiptConfComponent</text>
</g>
<!-- ReceiptConfComponent&#45;&gt;BranchModule -->
<g id="edge11" class="edge">
<title>ReceiptConfComponent&#45;&gt;BranchModule</title>
<path fill="none" stroke="#000000" d="M626,-122.2222C626,-140.8285 626,-167 626,-167 626,-167 1231.9418,-167 1231.9418,-167"/>
<polygon fill="#000000" stroke="#000000" points="1231.9418,-170.5001 1241.9418,-167 1231.9417,-163.5001 1231.9418,-170.5001"/>
</g>
<!-- ViewCourseComponent -->
<g id="node12" class="node">
<title>ViewCourseComponent</title>
<polygon fill="#ffffb3" stroke="#000000" points="531.8075,-122 380.1925,-122 380.1925,-86 531.8075,-86 531.8075,-122"/>
<text text-anchor="middle" x="456" y="-99.8" font-family="Times,serif" font-size="14.00" fill="#000000">ViewCourseComponent</text>
</g>
<!-- ViewCourseComponent&#45;&gt;BranchModule -->
<g id="edge12" class="edge">
<title>ViewCourseComponent&#45;&gt;BranchModule</title>
<path fill="none" stroke="#000000" d="M456,-122.2228C456,-142.3652 456,-172 456,-172 456,-172 1231.898,-172 1231.898,-172"/>
<polygon fill="#000000" stroke="#000000" points="1231.898,-175.5001 1241.898,-172 1231.8979,-168.5001 1231.898,-175.5001"/>
</g>
<!-- ViewEmployeeComponent -->
<g id="node13" class="node">
<title>ViewEmployeeComponent</title>
<polygon fill="#ffffb3" stroke="#000000" points="362.4143,-122 193.5857,-122 193.5857,-86 362.4143,-86 362.4143,-122"/>
<text text-anchor="middle" x="278" y="-99.8" font-family="Times,serif" font-size="14.00" fill="#000000">ViewEmployeeComponent</text>
</g>
<!-- ViewEmployeeComponent&#45;&gt;BranchModule -->
<g id="edge13" class="edge">
<title>ViewEmployeeComponent&#45;&gt;BranchModule</title>
<path fill="none" stroke="#000000" d="M278,-122.0449C278,-143.6623 278,-177 278,-177 278,-177 1231.7156,-177 1231.7156,-177"/>
<polygon fill="#000000" stroke="#000000" points="1231.7156,-180.5001 1241.7156,-177 1231.7155,-173.5001 1231.7156,-180.5001"/>
</g>
<!-- BranchRoutingModule -->
<g id="node15" class="node">
<title>BranchRoutingModule</title>
<polygon fill="#8dd3c7" stroke="#000000" points="169.594,-122 166.594,-126 145.594,-126 142.594,-122 24.406,-122 24.406,-86 169.594,-86 169.594,-122"/>
<text text-anchor="middle" x="97" y="-99.8" font-family="Times,serif" font-size="14.00" fill="#000000">BranchRoutingModule</text>
</g>
<!-- BranchRoutingModule&#45;&gt;BranchModule -->
<g id="edge14" class="edge">
<title>BranchRoutingModule&#45;&gt;BranchModule</title>
<path fill="none" stroke="#000000" d="M97,-122.0908C97,-145.1328 97,-182 97,-182 97,-182 1231.7953,-182 1231.7953,-182"/>
<polygon fill="#000000" stroke="#000000" points="1231.7954,-185.5001 1241.7953,-182 1231.7953,-178.5001 1231.7954,-185.5001"/>
</g>
</g>
</svg>
