<?xml version="1.0" encoding="UTF-8" standalone="no"?>
<!DOCTYPE svg PUBLIC "-//W3C//DTD SVG 1.1//EN"
 "http://www.w3.org/Graphics/SVG/1.1/DTD/svg11.dtd">
<!-- Generated by graphviz version 2.40.1 (20161225.0304)
 -->
<!-- Title: dependencies Pages: 1 -->
<svg width="5148pt" height="211pt"
 viewBox="0.00 0.00 5148.00 211.00" xmlns="http://www.w3.org/2000/svg" xmlns:xlink="http://www.w3.org/1999/xlink">
<g id="graph0" class="graph" transform="scale(1 1) rotate(0) translate(4 207)">
<title>dependencies</title>
<polygon fill="#ffffff" stroke="transparent" points="-4,4 -4,-207 5144,-207 5144,4 -4,4"/>
<text text-anchor="start" x="2549.0091" y="-42.4" font-family="sans-serif" font-weight="bold" font-size="14.00" fill="#000000">Legend</text>
<polygon fill="#ffffb3" stroke="transparent" points="2336,-10 2336,-30 2356,-30 2356,-10 2336,-10"/>
<text text-anchor="start" x="2359.629" y="-15.4" font-family="sans-serif" font-size="14.00" fill="#000000"> &#160;Declarations</text>
<polygon fill="#8dd3c7" stroke="transparent" points="2449,-10 2449,-30 2469,-30 2469,-10 2449,-10"/>
<text text-anchor="start" x="2472.7251" y="-15.4" font-family="sans-serif" font-size="14.00" fill="#000000"> &#160;Module</text>
<polygon fill="#80b1d3" stroke="transparent" points="2535,-10 2535,-30 2555,-30 2555,-10 2535,-10"/>
<text text-anchor="start" x="2558.7812" y="-15.4" font-family="sans-serif" font-size="14.00" fill="#000000"> &#160;Bootstrap</text>
<polygon fill="#fdb462" stroke="transparent" points="2632,-10 2632,-30 2652,-30 2652,-10 2632,-10"/>
<text text-anchor="start" x="2655.6732" y="-15.4" font-family="sans-serif" font-size="14.00" fill="#000000"> &#160;Providers</text>
<polygon fill="#fb8072" stroke="transparent" points="2728,-10 2728,-30 2748,-30 2748,-10 2728,-10"/>
<text text-anchor="start" x="2751.7258" y="-15.4" font-family="sans-serif" font-size="14.00" fill="#000000"> &#160;Exports</text>
<g id="clust1" class="cluster">
<title>cluster_StudentModule</title>
<polygon fill="none" stroke="#000000" stroke-dasharray="1,5" points="8,-70 8,-195 5132,-195 5132,-70 8,-70"/>
</g>
<g id="clust2" class="cluster">
<title>cluster_StudentModule_declarations</title>
<polygon fill="none" stroke="#000000" points="420,-78 420,-130 5124,-130 5124,-78 420,-78"/>
</g>
<g id="clust26" class="cluster">
<title>cluster_StudentModule_imports</title>
<polygon fill="none" stroke="#000000" points="16,-78 16,-130 412,-130 412,-78 16,-78"/>
</g>
<!-- OnlineClassLinkComponent -->
<g id="node1" class="node">
<title>OnlineClassLinkComponent</title>
<polygon fill="#ffffb3" stroke="#000000" points="5116.2091,-122 4939.7909,-122 4939.7909,-86 5116.2091,-86 5116.2091,-122"/>
<text text-anchor="middle" x="5028" y="-99.8" font-family="Times,serif" font-size="14.00" fill="#000000">OnlineClassLinkComponent</text>
</g>
<!-- StudentModule -->
<g id="node24" class="node">
<title>StudentModule</title>
<polygon fill="#8dd3c7" stroke="#000000" points="2574.3287,-187 2571.3287,-191 2550.3287,-191 2547.3287,-187 2471.6713,-187 2471.6713,-151 2574.3287,-151 2574.3287,-187"/>
<text text-anchor="middle" x="2523" y="-164.8" font-family="Times,serif" font-size="14.00" fill="#000000">StudentModule</text>
</g>
<!-- OnlineClassLinkComponent&#45;&gt;StudentModule -->
<g id="edge1" class="edge">
<title>OnlineClassLinkComponent&#45;&gt;StudentModule</title>
<path fill="none" stroke="#000000" d="M5028,-122.3802C5028,-146.2785 5028,-185 5028,-185 5028,-185 2584.1735,-185 2584.1735,-185"/>
<polygon fill="#000000" stroke="#000000" points="2584.1735,-181.5001 2574.1735,-185 2584.1734,-188.5001 2584.1735,-181.5001"/>
</g>
<!-- OnlineeClassComponent -->
<g id="node2" class="node">
<title>OnlineeClassComponent</title>
<polygon fill="#ffffb3" stroke="#000000" points="4921.9804,-122 4766.0196,-122 4766.0196,-86 4921.9804,-86 4921.9804,-122"/>
<text text-anchor="middle" x="4844" y="-99.8" font-family="Times,serif" font-size="14.00" fill="#000000">OnlineeClassComponent</text>
</g>
<!-- OnlineeClassComponent&#45;&gt;StudentModule -->
<g id="edge2" class="edge">
<title>OnlineeClassComponent&#45;&gt;StudentModule</title>
<path fill="none" stroke="#000000" d="M4844,-122.0908C4844,-145.1328 4844,-182 4844,-182 4844,-182 2584.1824,-182 2584.1824,-182"/>
<polygon fill="#000000" stroke="#000000" points="2584.1824,-178.5001 2574.1824,-182 2584.1824,-185.5001 2584.1824,-178.5001"/>
</g>
<!-- PlayLinksComponent -->
<g id="node3" class="node">
<title>PlayLinksComponent</title>
<polygon fill="#ffffb3" stroke="#000000" points="4748.108,-122 4609.892,-122 4609.892,-86 4748.108,-86 4748.108,-122"/>
<text text-anchor="middle" x="4679" y="-99.8" font-family="Times,serif" font-size="14.00" fill="#000000">PlayLinksComponent</text>
</g>
<!-- PlayLinksComponent&#45;&gt;StudentModule -->
<g id="edge3" class="edge">
<title>PlayLinksComponent&#45;&gt;StudentModule</title>
<path fill="none" stroke="#000000" d="M4679,-122.1554C4679,-144.3519 4679,-179 4679,-179 4679,-179 2584.1682,-179 2584.1682,-179"/>
<polygon fill="#000000" stroke="#000000" points="2584.1682,-175.5001 2574.1682,-179 2584.1681,-182.5001 2584.1682,-175.5001"/>
</g>
<!-- StudentAnnouncementsComponent -->
<g id="node4" class="node">
<title>StudentAnnouncementsComponent</title>
<polygon fill="#ffffb3" stroke="#000000" points="4591.587,-122 4376.413,-122 4376.413,-86 4591.587,-86 4591.587,-122"/>
<text text-anchor="middle" x="4484" y="-99.8" font-family="Times,serif" font-size="14.00" fill="#000000">StudentAnnouncementsComponent</text>
</g>
<!-- StudentAnnouncementsComponent&#45;&gt;StudentModule -->
<g id="edge4" class="edge">
<title>StudentAnnouncementsComponent&#45;&gt;StudentModule</title>
<path fill="none" stroke="#000000" d="M4484,-122.1686C4484,-143.498 4484,-176 4484,-176 4484,-176 2584.1934,-176 2584.1934,-176"/>
<polygon fill="#000000" stroke="#000000" points="2584.1935,-172.5001 2574.1934,-176 2584.1934,-179.5001 2584.1935,-172.5001"/>
</g>
<!-- StudentAttendanceComponent -->
<g id="node5" class="node">
<title>StudentAttendanceComponent</title>
<polygon fill="#ffffb3" stroke="#000000" points="4358.8571,-122 4171.1429,-122 4171.1429,-86 4358.8571,-86 4358.8571,-122"/>
<text text-anchor="middle" x="4265" y="-99.8" font-family="Times,serif" font-size="14.00" fill="#000000">StudentAttendanceComponent</text>
</g>
<!-- StudentAttendanceComponent&#45;&gt;StudentModule -->
<g id="edge5" class="edge">
<title>StudentAttendanceComponent&#45;&gt;StudentModule</title>
<path fill="none" stroke="#000000" d="M4265,-122.0267C4265,-142.7672 4265,-174 4265,-174 4265,-174 2584.1913,-174 2584.1913,-174"/>
<polygon fill="#000000" stroke="#000000" points="2584.1914,-170.5001 2574.1913,-174 2584.1913,-177.5001 2584.1914,-170.5001"/>
</g>
<!-- StudentComponent -->
<g id="node6" class="node">
<title>StudentComponent</title>
<polygon fill="#ffffb3" stroke="#000000" points="4153.1108,-122 4028.8892,-122 4028.8892,-86 4153.1108,-86 4153.1108,-122"/>
<text text-anchor="middle" x="4091" y="-99.8" font-family="Times,serif" font-size="14.00" fill="#000000">StudentComponent</text>
</g>
<!-- StudentComponent&#45;&gt;StudentModule -->
<g id="edge6" class="edge">
<title>StudentComponent&#45;&gt;StudentModule</title>
<path fill="none" stroke="#000000" d="M4091,-122.308C4091,-142.1455 4091,-171 4091,-171 4091,-171 2584.2787,-171 2584.2787,-171"/>
<polygon fill="#000000" stroke="#000000" points="2584.2787,-167.5001 2574.2787,-171 2584.2787,-174.5001 2584.2787,-167.5001"/>
</g>
<!-- StudentDashboardComponent -->
<g id="node7" class="node">
<title>StudentDashboardComponent</title>
<polygon fill="#ffffb3" stroke="#000000" points="4011.252,-122 3826.748,-122 3826.748,-86 4011.252,-86 4011.252,-122"/>
<text text-anchor="middle" x="3919" y="-99.8" font-family="Times,serif" font-size="14.00" fill="#000000">StudentDashboardComponent</text>
</g>
<!-- StudentDashboardComponent&#45;&gt;StudentModule -->
<g id="edge7" class="edge">
<title>StudentDashboardComponent&#45;&gt;StudentModule</title>
<path fill="none" stroke="#000000" d="M3919,-122.1686C3919,-141.0898 3919,-168 3919,-168 3919,-168 2584.34,-168 2584.34,-168"/>
<polygon fill="#000000" stroke="#000000" points="2584.34,-164.5001 2574.34,-168 2584.34,-171.5001 2584.34,-164.5001"/>
</g>
<!-- StudentEnrollmentDetailsComponent -->
<g id="node8" class="node">
<title>StudentEnrollmentDetailsComponent</title>
<polygon fill="#ffffb3" stroke="#000000" points="3808.2533,-122 3581.7467,-122 3581.7467,-86 3808.2533,-86 3808.2533,-122"/>
<text text-anchor="middle" x="3695" y="-99.8" font-family="Times,serif" font-size="14.00" fill="#000000">StudentEnrollmentDetailsComponent</text>
</g>
<!-- StudentEnrollmentDetailsComponent&#45;&gt;StudentModule -->
<g id="edge8" class="edge">
<title>StudentEnrollmentDetailsComponent&#45;&gt;StudentModule</title>
<path fill="none" stroke="#000000" d="M3695,-122.302C3695,-140.2699 3695,-165 3695,-165 3695,-165 2584.4917,-165 2584.4917,-165"/>
<polygon fill="#000000" stroke="#000000" points="2584.4917,-161.5001 2574.4917,-165 2584.4916,-168.5001 2584.4917,-161.5001"/>
</g>
<!-- StudentForumCommentComponent -->
<g id="node9" class="node">
<title>StudentForumCommentComponent</title>
<polygon fill="#ffffb3" stroke="#000000" points="3563.1679,-122 3346.8321,-122 3346.8321,-86 3563.1679,-86 3563.1679,-122"/>
<text text-anchor="middle" x="3455" y="-99.8" font-family="Times,serif" font-size="14.00" fill="#000000">StudentForumCommentComponent</text>
</g>
<!-- StudentForumCommentComponent&#45;&gt;StudentModule -->
<g id="edge9" class="edge">
<title>StudentForumCommentComponent&#45;&gt;StudentModule</title>
<path fill="none" stroke="#000000" d="M3455,-122.0225C3455,-139.3734 3455,-163 3455,-163 3455,-163 2584.4359,-163 2584.4359,-163"/>
<polygon fill="#000000" stroke="#000000" points="2584.436,-159.5001 2574.4359,-163 2584.4359,-166.5001 2584.436,-159.5001"/>
</g>
<!-- StudentForumsChatsComponent -->
<g id="node10" class="node">
<title>StudentForumsChatsComponent</title>
<polygon fill="#ffffb3" stroke="#000000" points="3328.2757,-122 3129.7243,-122 3129.7243,-86 3328.2757,-86 3328.2757,-122"/>
<text text-anchor="middle" x="3229" y="-99.8" font-family="Times,serif" font-size="14.00" fill="#000000">StudentForumsChatsComponent</text>
</g>
<!-- StudentForumsChatsComponent&#45;&gt;StudentModule -->
<g id="edge10" class="edge">
<title>StudentForumsChatsComponent&#45;&gt;StudentModule</title>
<path fill="none" stroke="#000000" d="M3229,-122.027C3229,-138.3976 3229,-160 3229,-160 3229,-160 2584.3425,-160 2584.3425,-160"/>
<polygon fill="#000000" stroke="#000000" points="2584.3425,-156.5001 2574.3425,-160 2584.3424,-163.5001 2584.3425,-156.5001"/>
</g>
<!-- StudentHomeComponent -->
<g id="node11" class="node">
<title>StudentHomeComponent</title>
<polygon fill="#ffffb3" stroke="#000000" points="3111.3229,-122 2952.6771,-122 2952.6771,-86 3111.3229,-86 3111.3229,-122"/>
<text text-anchor="middle" x="3032" y="-99.8" font-family="Times,serif" font-size="14.00" fill="#000000">StudentHomeComponent</text>
</g>
<!-- StudentHomeComponent&#45;&gt;StudentModule -->
<g id="edge11" class="edge">
<title>StudentHomeComponent&#45;&gt;StudentModule</title>
<path fill="none" stroke="#000000" d="M3032,-122.2396C3032,-137.5706 3032,-157 3032,-157 3032,-157 2584.6067,-157 2584.6067,-157"/>
<polygon fill="#000000" stroke="#000000" points="2584.6068,-153.5001 2574.6067,-157 2584.6067,-160.5001 2584.6068,-153.5001"/>
</g>
<!-- StudentInstituteHeaderComponent -->
<g id="node12" class="node">
<title>StudentInstituteHeaderComponent</title>
<polygon fill="#ffffb3" stroke="#000000" points="2935.4044,-122 2724.5956,-122 2724.5956,-86 2935.4044,-86 2935.4044,-122"/>
<text text-anchor="middle" x="2830" y="-99.8" font-family="Times,serif" font-size="14.00" fill="#000000">StudentInstituteHeaderComponent</text>
</g>
<!-- StudentInstituteHeaderComponent&#45;&gt;StudentModule -->
<g id="edge12" class="edge">
<title>StudentInstituteHeaderComponent&#45;&gt;StudentModule</title>
<path fill="none" stroke="#000000" d="M2830,-122.0511C2830,-136.373 2830,-154 2830,-154 2830,-154 2584.3849,-154 2584.3849,-154"/>
<polygon fill="#000000" stroke="#000000" points="2584.3849,-150.5001 2574.3849,-154 2584.3849,-157.5001 2584.3849,-150.5001"/>
</g>
<!-- StudentInstitutesComponent -->
<g id="node13" class="node">
<title>StudentInstitutesComponent</title>
<polygon fill="#ffffb3" stroke="#000000" points="2706.9381,-122 2531.0619,-122 2531.0619,-86 2706.9381,-86 2706.9381,-122"/>
<text text-anchor="middle" x="2619" y="-99.8" font-family="Times,serif" font-size="14.00" fill="#000000">StudentInstitutesComponent</text>
</g>
<!-- StudentInstitutesComponent&#45;&gt;StudentModule -->
<g id="edge13" class="edge">
<title>StudentInstitutesComponent&#45;&gt;StudentModule</title>
<path fill="none" stroke="#000000" d="M2552.7226,-122.1061C2552.7226,-122.1061 2552.7226,-140.991 2552.7226,-140.991"/>
<polygon fill="#000000" stroke="#000000" points="2549.2227,-140.9909 2552.7226,-150.991 2556.2227,-140.991 2549.2227,-140.9909"/>
</g>
<!-- StudentMeetingComponent -->
<g id="node14" class="node">
<title>StudentMeetingComponent</title>
<polygon fill="#ffffb3" stroke="#000000" points="2513.266,-122 2342.734,-122 2342.734,-86 2513.266,-86 2513.266,-122"/>
<text text-anchor="middle" x="2428" y="-99.8" font-family="Times,serif" font-size="14.00" fill="#000000">StudentMeetingComponent</text>
</g>
<!-- StudentMeetingComponent&#45;&gt;StudentModule -->
<g id="edge14" class="edge">
<title>StudentMeetingComponent&#45;&gt;StudentModule</title>
<path fill="none" stroke="#000000" d="M2492.6094,-122.1061C2492.6094,-122.1061 2492.6094,-140.991 2492.6094,-140.991"/>
<polygon fill="#000000" stroke="#000000" points="2489.1095,-140.9909 2492.6094,-150.991 2496.1095,-140.991 2489.1095,-140.9909"/>
</g>
<!-- StudentMentoringComponent -->
<g id="node15" class="node">
<title>StudentMentoringComponent</title>
<polygon fill="#ffffb3" stroke="#000000" points="2324.7119,-122 2141.2881,-122 2141.2881,-86 2324.7119,-86 2324.7119,-122"/>
<text text-anchor="middle" x="2233" y="-99.8" font-family="Times,serif" font-size="14.00" fill="#000000">StudentMentoringComponent</text>
</g>
<!-- StudentMentoringComponent&#45;&gt;StudentModule -->
<g id="edge15" class="edge">
<title>StudentMentoringComponent&#45;&gt;StudentModule</title>
<path fill="none" stroke="#000000" d="M2233,-122.0511C2233,-136.373 2233,-154 2233,-154 2233,-154 2461.8214,-154 2461.8214,-154"/>
<polygon fill="#000000" stroke="#000000" points="2461.8214,-157.5001 2471.8214,-154 2461.8213,-150.5001 2461.8214,-157.5001"/>
</g>
<!-- StudentPerformanceReportComponent -->
<g id="node16" class="node">
<title>StudentPerformanceReportComponent</title>
<polygon fill="#ffffb3" stroke="#000000" points="2123.7268,-122 1890.2732,-122 1890.2732,-86 2123.7268,-86 2123.7268,-122"/>
<text text-anchor="middle" x="2007" y="-99.8" font-family="Times,serif" font-size="14.00" fill="#000000">StudentPerformanceReportComponent</text>
</g>
<!-- StudentPerformanceReportComponent&#45;&gt;StudentModule -->
<g id="edge16" class="edge">
<title>StudentPerformanceReportComponent&#45;&gt;StudentModule</title>
<path fill="none" stroke="#000000" d="M2007,-122.2396C2007,-137.5706 2007,-157 2007,-157 2007,-157 2461.6375,-157 2461.6375,-157"/>
<polygon fill="#000000" stroke="#000000" points="2461.6375,-160.5001 2471.6375,-157 2461.6375,-153.5001 2461.6375,-160.5001"/>
</g>
<!-- StudentScheduleComponent -->
<g id="node17" class="node">
<title>StudentScheduleComponent</title>
<polygon fill="#ffffb3" stroke="#000000" points="1871.9283,-122 1696.0717,-122 1696.0717,-86 1871.9283,-86 1871.9283,-122"/>
<text text-anchor="middle" x="1784" y="-99.8" font-family="Times,serif" font-size="14.00" fill="#000000">StudentScheduleComponent</text>
</g>
<!-- StudentScheduleComponent&#45;&gt;StudentModule -->
<g id="edge17" class="edge">
<title>StudentScheduleComponent&#45;&gt;StudentModule</title>
<path fill="none" stroke="#000000" d="M1784,-122.027C1784,-138.3976 1784,-160 1784,-160 1784,-160 2461.6217,-160 2461.6217,-160"/>
<polygon fill="#000000" stroke="#000000" points="2461.6217,-163.5001 2471.6217,-160 2461.6216,-156.5001 2461.6217,-163.5001"/>
</g>
<!-- StudentStudyMaterialComponent -->
<g id="node18" class="node">
<title>StudentStudyMaterialComponent</title>
<polygon fill="#ffffb3" stroke="#000000" points="1678.2049,-122 1473.7951,-122 1473.7951,-86 1678.2049,-86 1678.2049,-122"/>
<text text-anchor="middle" x="1576" y="-99.8" font-family="Times,serif" font-size="14.00" fill="#000000">StudentStudyMaterialComponent</text>
</g>
<!-- StudentStudyMaterialComponent&#45;&gt;StudentModule -->
<g id="edge18" class="edge">
<title>StudentStudyMaterialComponent&#45;&gt;StudentModule</title>
<path fill="none" stroke="#000000" d="M1576,-122.0225C1576,-139.3734 1576,-163 1576,-163 1576,-163 2461.7494,-163 2461.7494,-163"/>
<polygon fill="#000000" stroke="#000000" points="2461.7494,-166.5001 2471.7494,-163 2461.7494,-159.5001 2461.7494,-166.5001"/>
</g>
<!-- StudentTestComponent -->
<g id="node19" class="node">
<title>StudentTestComponent</title>
<polygon fill="#ffffb3" stroke="#000000" points="1456.2134,-122 1307.7866,-122 1307.7866,-86 1456.2134,-86 1456.2134,-122"/>
<text text-anchor="middle" x="1382" y="-99.8" font-family="Times,serif" font-size="14.00" fill="#000000">StudentTestComponent</text>
</g>
<!-- StudentTestComponent&#45;&gt;StudentModule -->
<g id="edge19" class="edge">
<title>StudentTestComponent&#45;&gt;StudentModule</title>
<path fill="none" stroke="#000000" d="M1382,-122.302C1382,-140.2699 1382,-165 1382,-165 1382,-165 2461.757,-165 2461.757,-165"/>
<polygon fill="#000000" stroke="#000000" points="2461.757,-168.5001 2471.757,-165 2461.7569,-161.5001 2461.757,-168.5001"/>
</g>
<!-- StudentViewAnnouncementComponent -->
<g id="node20" class="node">
<title>StudentViewAnnouncementComponent</title>
<polygon fill="#ffffb3" stroke="#000000" points="1289.9608,-122 1050.0392,-122 1050.0392,-86 1289.9608,-86 1289.9608,-122"/>
<text text-anchor="middle" x="1170" y="-99.8" font-family="Times,serif" font-size="14.00" fill="#000000">StudentViewAnnouncementComponent</text>
</g>
<!-- StudentViewAnnouncementComponent&#45;&gt;StudentModule -->
<g id="edge20" class="edge">
<title>StudentViewAnnouncementComponent&#45;&gt;StudentModule</title>
<path fill="none" stroke="#000000" d="M1170,-122.1686C1170,-141.0898 1170,-168 1170,-168 1170,-168 2461.613,-168 2461.613,-168"/>
<polygon fill="#000000" stroke="#000000" points="2461.613,-171.5001 2471.613,-168 2461.6129,-164.5001 2461.613,-171.5001"/>
</g>
<!-- StudentViewEnrollmentComponent -->
<g id="node21" class="node">
<title>StudentViewEnrollmentComponent</title>
<polygon fill="#ffffb3" stroke="#000000" points="1031.9198,-122 814.0802,-122 814.0802,-86 1031.9198,-86 1031.9198,-122"/>
<text text-anchor="middle" x="923" y="-99.8" font-family="Times,serif" font-size="14.00" fill="#000000">StudentViewEnrollmentComponent</text>
</g>
<!-- StudentViewEnrollmentComponent&#45;&gt;StudentModule -->
<g id="edge21" class="edge">
<title>StudentViewEnrollmentComponent&#45;&gt;StudentModule</title>
<path fill="none" stroke="#000000" d="M923,-122.308C923,-142.1455 923,-171 923,-171 923,-171 2461.5773,-171 2461.5773,-171"/>
<polygon fill="#000000" stroke="#000000" points="2461.5773,-174.5001 2471.5773,-171 2461.5772,-167.5001 2461.5773,-174.5001"/>
</g>
<!-- StudentViewScheduleComponent -->
<g id="node22" class="node">
<title>StudentViewScheduleComponent</title>
<polygon fill="#ffffb3" stroke="#000000" points="795.7464,-122 590.2536,-122 590.2536,-86 795.7464,-86 795.7464,-122"/>
<text text-anchor="middle" x="693" y="-99.8" font-family="Times,serif" font-size="14.00" fill="#000000">StudentViewScheduleComponent</text>
</g>
<!-- StudentViewScheduleComponent&#45;&gt;StudentModule -->
<g id="edge22" class="edge">
<title>StudentViewScheduleComponent&#45;&gt;StudentModule</title>
<path fill="none" stroke="#000000" d="M693,-122.0267C693,-142.7672 693,-174 693,-174 693,-174 2461.6635,-174 2461.6635,-174"/>
<polygon fill="#000000" stroke="#000000" points="2461.6635,-177.5001 2471.6635,-174 2461.6634,-170.5001 2461.6635,-177.5001"/>
</g>
<!-- ViewLinksComponent -->
<g id="node23" class="node">
<title>ViewLinksComponent</title>
<polygon fill="#ffffb3" stroke="#000000" points="571.5393,-122 428.4607,-122 428.4607,-86 571.5393,-86 571.5393,-122"/>
<text text-anchor="middle" x="500" y="-99.8" font-family="Times,serif" font-size="14.00" fill="#000000">ViewLinksComponent</text>
</g>
<!-- ViewLinksComponent&#45;&gt;StudentModule -->
<g id="edge23" class="edge">
<title>ViewLinksComponent&#45;&gt;StudentModule</title>
<path fill="none" stroke="#000000" d="M500,-122.1686C500,-143.498 500,-176 500,-176 500,-176 2461.7268,-176 2461.7268,-176"/>
<polygon fill="#000000" stroke="#000000" points="2461.7268,-179.5001 2471.7268,-176 2461.7267,-172.5001 2461.7268,-179.5001"/>
</g>
<!-- SharedModule -->
<g id="node25" class="node">
<title>SharedModule</title>
<polygon fill="#8dd3c7" stroke="#000000" points="404.4231,-122 401.4231,-126 380.4231,-126 377.4231,-122 305.5769,-122 305.5769,-86 404.4231,-86 404.4231,-122"/>
<text text-anchor="middle" x="355" y="-99.8" font-family="Times,serif" font-size="14.00" fill="#000000">SharedModule</text>
</g>
<!-- SharedModule&#45;&gt;StudentModule -->
<g id="edge24" class="edge">
<title>SharedModule&#45;&gt;StudentModule</title>
<path fill="none" stroke="#000000" d="M355,-122.1554C355,-144.3519 355,-179 355,-179 355,-179 2461.8115,-179 2461.8115,-179"/>
<polygon fill="#000000" stroke="#000000" points="2461.8115,-182.5001 2471.8115,-179 2461.8115,-175.5001 2461.8115,-182.5001"/>
</g>
<!-- StudentRoutingModule -->
<g id="node26" class="node">
<title>StudentRoutingModule</title>
<polygon fill="#8dd3c7" stroke="#000000" points="287.9467,-122 284.9467,-126 263.9467,-126 260.9467,-122 140.0533,-122 140.0533,-86 287.9467,-86 287.9467,-122"/>
<text text-anchor="middle" x="214" y="-99.8" font-family="Times,serif" font-size="14.00" fill="#000000">StudentRoutingModule</text>
</g>
<!-- StudentRoutingModule&#45;&gt;StudentModule -->
<g id="edge25" class="edge">
<title>StudentRoutingModule&#45;&gt;StudentModule</title>
<path fill="none" stroke="#000000" d="M214,-122.0908C214,-145.1328 214,-182 214,-182 214,-182 2461.8094,-182 2461.8094,-182"/>
<polygon fill="#000000" stroke="#000000" points="2461.8094,-185.5001 2471.8094,-182 2461.8094,-178.5001 2461.8094,-185.5001"/>
</g>
<!-- ThemeModule -->
<g id="node27" class="node">
<title>ThemeModule</title>
<polygon fill="#8dd3c7" stroke="#000000" points="122.4231,-122 119.4231,-126 98.4231,-126 95.4231,-122 23.5769,-122 23.5769,-86 122.4231,-86 122.4231,-122"/>
<text text-anchor="middle" x="73" y="-99.8" font-family="Times,serif" font-size="14.00" fill="#000000">ThemeModule</text>
</g>
<!-- ThemeModule&#45;&gt;StudentModule -->
<g id="edge26" class="edge">
<title>ThemeModule&#45;&gt;StudentModule</title>
<path fill="none" stroke="#000000" d="M73,-122.3802C73,-146.2785 73,-185 73,-185 73,-185 2461.8283,-185 2461.8283,-185"/>
<polygon fill="#000000" stroke="#000000" points="2461.8283,-188.5001 2471.8283,-185 2461.8282,-181.5001 2461.8283,-188.5001"/>
</g>
</g>
</svg>
