<?xml version="1.0" encoding="UTF-8" standalone="no"?>
<!DOCTYPE svg PUBLIC "-//W3C//DTD SVG 1.1//EN"
 "http://www.w3.org/Graphics/SVG/1.1/DTD/svg11.dtd">
<!-- Generated by graphviz version 2.40.1 (20161225.0304)
 -->
<!-- Title: dependencies Pages: 1 -->
<svg width="2525pt" height="211pt"
 viewBox="0.00 0.00 2525.00 211.00" xmlns="http://www.w3.org/2000/svg" xmlns:xlink="http://www.w3.org/1999/xlink">
<g id="graph0" class="graph" transform="scale(1 1) rotate(0) translate(4 207)">
<title>dependencies</title>
<polygon fill="#ffffff" stroke="transparent" points="-4,4 -4,-207 2521,-207 2521,4 -4,4"/>
<text text-anchor="start" x="1237.5091" y="-42.4" font-family="sans-serif" font-weight="bold" font-size="14.00" fill="#000000">Legend</text>
<polygon fill="#ffffb3" stroke="transparent" points="1024.5,-10 1024.5,-30 1044.5,-30 1044.5,-10 1024.5,-10"/>
<text text-anchor="start" x="1048.129" y="-15.4" font-family="sans-serif" font-size="14.00" fill="#000000"> &#160;Declarations</text>
<polygon fill="#8dd3c7" stroke="transparent" points="1137.5,-10 1137.5,-30 1157.5,-30 1157.5,-10 1137.5,-10"/>
<text text-anchor="start" x="1161.2251" y="-15.4" font-family="sans-serif" font-size="14.00" fill="#000000"> &#160;Module</text>
<polygon fill="#80b1d3" stroke="transparent" points="1223.5,-10 1223.5,-30 1243.5,-30 1243.5,-10 1223.5,-10"/>
<text text-anchor="start" x="1247.2812" y="-15.4" font-family="sans-serif" font-size="14.00" fill="#000000"> &#160;Bootstrap</text>
<polygon fill="#fdb462" stroke="transparent" points="1320.5,-10 1320.5,-30 1340.5,-30 1340.5,-10 1320.5,-10"/>
<text text-anchor="start" x="1344.1732" y="-15.4" font-family="sans-serif" font-size="14.00" fill="#000000"> &#160;Providers</text>
<polygon fill="#fb8072" stroke="transparent" points="1416.5,-10 1416.5,-30 1436.5,-30 1436.5,-10 1416.5,-10"/>
<text text-anchor="start" x="1440.2258" y="-15.4" font-family="sans-serif" font-size="14.00" fill="#000000"> &#160;Exports</text>
<g id="clust1" class="cluster">
<title>cluster_OnlineClassesModule</title>
<polygon fill="none" stroke="#000000" stroke-dasharray="1,5" points="8,-70 8,-195 2509,-195 2509,-70 8,-70"/>
</g>
<g id="clust2" class="cluster">
<title>cluster_OnlineClassesModule_declarations</title>
<polygon fill="none" stroke="#000000" points="224,-78 224,-130 2501,-130 2501,-78 224,-78"/>
</g>
<g id="clust14" class="cluster">
<title>cluster_OnlineClassesModule_imports</title>
<polygon fill="none" stroke="#000000" points="16,-78 16,-130 216,-130 216,-78 16,-78"/>
</g>
<!-- AddOnlineClassComponent -->
<g id="node1" class="node">
<title>AddOnlineClassComponent</title>
<polygon fill="#ffffb3" stroke="#000000" points="2492.8724,-122 2319.1276,-122 2319.1276,-86 2492.8724,-86 2492.8724,-122"/>
<text text-anchor="middle" x="2406" y="-99.8" font-family="Times,serif" font-size="14.00" fill="#000000">AddOnlineClassComponent</text>
</g>
<!-- OnlineClassesModule -->
<g id="node12" class="node">
<title>OnlineClassesModule</title>
<polygon fill="#8dd3c7" stroke="#000000" points="1323.6429,-187 1320.6429,-191 1299.6429,-191 1296.6429,-187 1184.3571,-187 1184.3571,-151 1323.6429,-151 1323.6429,-187"/>
<text text-anchor="middle" x="1254" y="-164.8" font-family="Times,serif" font-size="14.00" fill="#000000">OnlineClassesModule</text>
</g>
<!-- AddOnlineClassComponent&#45;&gt;OnlineClassesModule -->
<g id="edge1" class="edge">
<title>AddOnlineClassComponent&#45;&gt;OnlineClassesModule</title>
<path fill="none" stroke="#000000" d="M2406,-122.0908C2406,-145.1328 2406,-182 2406,-182 2406,-182 1333.898,-182 1333.898,-182"/>
<polygon fill="#000000" stroke="#000000" points="1333.898,-178.5001 1323.898,-182 1333.8979,-185.5001 1333.898,-178.5001"/>
</g>
<!-- AddOnlineClassLinkComponent -->
<g id="node2" class="node">
<title>AddOnlineClassLinkComponent</title>
<polygon fill="#ffffb3" stroke="#000000" points="2301.3158,-122 2100.6842,-122 2100.6842,-86 2301.3158,-86 2301.3158,-122"/>
<text text-anchor="middle" x="2201" y="-99.8" font-family="Times,serif" font-size="14.00" fill="#000000">AddOnlineClassLinkComponent</text>
</g>
<!-- AddOnlineClassLinkComponent&#45;&gt;OnlineClassesModule -->
<g id="edge2" class="edge">
<title>AddOnlineClassLinkComponent&#45;&gt;OnlineClassesModule</title>
<path fill="none" stroke="#000000" d="M2201,-122.2843C2201,-143.3211 2201,-175 2201,-175 2201,-175 1334.0198,-175 1334.0198,-175"/>
<polygon fill="#000000" stroke="#000000" points="1334.0198,-171.5001 1324.0198,-175 1334.0197,-178.5001 1334.0198,-171.5001"/>
</g>
<!-- ManageOnlineClassComponent -->
<g id="node3" class="node">
<title>ManageOnlineClassComponent</title>
<polygon fill="#ffffb3" stroke="#000000" points="2082.3543,-122 1887.6457,-122 1887.6457,-86 2082.3543,-86 2082.3543,-122"/>
<text text-anchor="middle" x="1985" y="-99.8" font-family="Times,serif" font-size="14.00" fill="#000000">ManageOnlineClassComponent</text>
</g>
<!-- ManageOnlineClassComponent&#45;&gt;OnlineClassesModule -->
<g id="edge3" class="edge">
<title>ManageOnlineClassComponent&#45;&gt;OnlineClassesModule</title>
<path fill="none" stroke="#000000" d="M1985,-122.1061C1985,-141.3391 1985,-169 1985,-169 1985,-169 1333.7602,-169 1333.7602,-169"/>
<polygon fill="#000000" stroke="#000000" points="1333.7603,-165.5001 1323.7602,-169 1333.7602,-172.5001 1333.7603,-165.5001"/>
</g>
<!-- OnlineClassLinksComponent -->
<g id="node4" class="node">
<title>OnlineClassLinksComponent</title>
<polygon fill="#ffffb3" stroke="#000000" points="1869.6539,-122 1688.3461,-122 1688.3461,-86 1869.6539,-86 1869.6539,-122"/>
<text text-anchor="middle" x="1779" y="-99.8" font-family="Times,serif" font-size="14.00" fill="#000000">OnlineClassLinksComponent</text>
</g>
<!-- OnlineClassLinksComponent&#45;&gt;OnlineClassesModule -->
<g id="edge4" class="edge">
<title>OnlineClassLinksComponent&#45;&gt;OnlineClassesModule</title>
<path fill="none" stroke="#000000" d="M1779,-122.0225C1779,-139.3734 1779,-163 1779,-163 1779,-163 1333.7159,-163 1333.7159,-163"/>
<polygon fill="#000000" stroke="#000000" points="1333.716,-159.5001 1323.7159,-163 1333.7159,-166.5001 1333.716,-159.5001"/>
</g>
<!-- OnlineClassSettingsComponent -->
<g id="node5" class="node">
<title>OnlineClassSettingsComponent</title>
<polygon fill="#ffffb3" stroke="#000000" points="1670.3794,-122 1475.6206,-122 1475.6206,-86 1670.3794,-86 1670.3794,-122"/>
<text text-anchor="middle" x="1573" y="-99.8" font-family="Times,serif" font-size="14.00" fill="#000000">OnlineClassSettingsComponent</text>
</g>
<!-- OnlineClassSettingsComponent&#45;&gt;OnlineClassesModule -->
<g id="edge5" class="edge">
<title>OnlineClassSettingsComponent&#45;&gt;OnlineClassesModule</title>
<path fill="none" stroke="#000000" d="M1573,-122.2396C1573,-137.5706 1573,-157 1573,-157 1573,-157 1334.0059,-157 1334.0059,-157"/>
<polygon fill="#000000" stroke="#000000" points="1334.0059,-153.5001 1324.0059,-157 1334.0059,-160.5001 1334.0059,-153.5001"/>
</g>
<!-- OnlineClassesConfComponent -->
<g id="node6" class="node">
<title>OnlineClassesConfComponent</title>
<polygon fill="#ffffb3" stroke="#000000" points="1457.9227,-122 1268.0773,-122 1268.0773,-86 1457.9227,-86 1457.9227,-122"/>
<text text-anchor="middle" x="1363" y="-99.8" font-family="Times,serif" font-size="14.00" fill="#000000">OnlineClassesConfComponent</text>
</g>
<!-- OnlineClassesConfComponent&#45;&gt;OnlineClassesModule -->
<g id="edge6" class="edge">
<title>OnlineClassesConfComponent&#45;&gt;OnlineClassesModule</title>
<path fill="none" stroke="#000000" d="M1296.0551,-122.1061C1296.0551,-122.1061 1296.0551,-140.991 1296.0551,-140.991"/>
<polygon fill="#000000" stroke="#000000" points="1292.5551,-140.9909 1296.0551,-150.991 1299.5551,-140.991 1292.5551,-140.9909"/>
</g>
<!-- OnlineClassesUpgradeComponent -->
<g id="node7" class="node">
<title>OnlineClassesUpgradeComponent</title>
<polygon fill="#ffffb3" stroke="#000000" points="1249.6217,-122 1040.3783,-122 1040.3783,-86 1249.6217,-86 1249.6217,-122"/>
<text text-anchor="middle" x="1145" y="-99.8" font-family="Times,serif" font-size="14.00" fill="#000000">OnlineClassesUpgradeComponent</text>
</g>
<!-- OnlineClassesUpgradeComponent&#45;&gt;OnlineClassesModule -->
<g id="edge7" class="edge">
<title>OnlineClassesUpgradeComponent&#45;&gt;OnlineClassesModule</title>
<path fill="none" stroke="#000000" d="M1216.9947,-122.1061C1216.9947,-122.1061 1216.9947,-140.991 1216.9947,-140.991"/>
<polygon fill="#000000" stroke="#000000" points="1213.4948,-140.9909 1216.9947,-150.991 1220.4948,-140.991 1213.4948,-140.9909"/>
</g>
<!-- PlayVideoRecordingComponent -->
<g id="node8" class="node">
<title>PlayVideoRecordingComponent</title>
<polygon fill="#ffffb3" stroke="#000000" points="1022.2492,-122 823.7508,-122 823.7508,-86 1022.2492,-86 1022.2492,-122"/>
<text text-anchor="middle" x="923" y="-99.8" font-family="Times,serif" font-size="14.00" fill="#000000">PlayVideoRecordingComponent</text>
</g>
<!-- PlayVideoRecordingComponent&#45;&gt;OnlineClassesModule -->
<g id="edge8" class="edge">
<title>PlayVideoRecordingComponent&#45;&gt;OnlineClassesModule</title>
<path fill="none" stroke="#000000" d="M923,-122.2396C923,-137.5706 923,-157 923,-157 923,-157 1174.2079,-157 1174.2079,-157"/>
<polygon fill="#000000" stroke="#000000" points="1174.2079,-160.5001 1184.2079,-157 1174.2078,-153.5001 1174.2079,-160.5001"/>
</g>
<!-- UploadClassRecordingComponent -->
<g id="node9" class="node">
<title>UploadClassRecordingComponent</title>
<polygon fill="#ffffb3" stroke="#000000" points="805.6923,-122 594.3077,-122 594.3077,-86 805.6923,-86 805.6923,-122"/>
<text text-anchor="middle" x="700" y="-99.8" font-family="Times,serif" font-size="14.00" fill="#000000">UploadClassRecordingComponent</text>
</g>
<!-- UploadClassRecordingComponent&#45;&gt;OnlineClassesModule -->
<g id="edge9" class="edge">
<title>UploadClassRecordingComponent&#45;&gt;OnlineClassesModule</title>
<path fill="none" stroke="#000000" d="M700,-122.0225C700,-139.3734 700,-163 700,-163 700,-163 1174.1162,-163 1174.1162,-163"/>
<polygon fill="#000000" stroke="#000000" points="1174.1162,-166.5001 1184.1162,-163 1174.1162,-159.5001 1174.1162,-166.5001"/>
</g>
<!-- UtilitiesComponent -->
<g id="node10" class="node">
<title>UtilitiesComponent</title>
<polygon fill="#ffffb3" stroke="#000000" points="576.4426,-122 449.5574,-122 449.5574,-86 576.4426,-86 576.4426,-122"/>
<text text-anchor="middle" x="513" y="-99.8" font-family="Times,serif" font-size="14.00" fill="#000000">UtilitiesComponent</text>
</g>
<!-- UtilitiesComponent&#45;&gt;OnlineClassesModule -->
<g id="edge10" class="edge">
<title>UtilitiesComponent&#45;&gt;OnlineClassesModule</title>
<path fill="none" stroke="#000000" d="M513,-122.1061C513,-141.3391 513,-169 513,-169 513,-169 1174.2885,-169 1174.2885,-169"/>
<polygon fill="#000000" stroke="#000000" points="1174.2886,-172.5001 1184.2885,-169 1174.2885,-165.5001 1174.2886,-172.5001"/>
</g>
<!-- ViewClassRecordingComponent -->
<g id="node11" class="node">
<title>ViewClassRecordingComponent</title>
<polygon fill="#ffffb3" stroke="#000000" points="432.299,-122 231.701,-122 231.701,-86 432.299,-86 432.299,-122"/>
<text text-anchor="middle" x="332" y="-99.8" font-family="Times,serif" font-size="14.00" fill="#000000">ViewClassRecordingComponent</text>
</g>
<!-- ViewClassRecordingComponent&#45;&gt;OnlineClassesModule -->
<g id="edge11" class="edge">
<title>ViewClassRecordingComponent&#45;&gt;OnlineClassesModule</title>
<path fill="none" stroke="#000000" d="M332,-122.2843C332,-143.3211 332,-175 332,-175 332,-175 1174.3222,-175 1174.3222,-175"/>
<polygon fill="#000000" stroke="#000000" points="1174.3222,-178.5001 1184.3222,-175 1174.3222,-171.5001 1174.3222,-178.5001"/>
</g>
<!-- OnlineClassesRoutingModule -->
<g id="node13" class="node">
<title>OnlineClassesRoutingModule</title>
<polygon fill="#8dd3c7" stroke="#000000" points="208.2604,-122 205.2604,-126 184.2604,-126 181.2604,-122 23.7396,-122 23.7396,-86 208.2604,-86 208.2604,-122"/>
<text text-anchor="middle" x="116" y="-99.8" font-family="Times,serif" font-size="14.00" fill="#000000">OnlineClassesRoutingModule</text>
</g>
<!-- OnlineClassesRoutingModule&#45;&gt;OnlineClassesModule -->
<g id="edge12" class="edge">
<title>OnlineClassesRoutingModule&#45;&gt;OnlineClassesModule</title>
<path fill="none" stroke="#000000" d="M116,-122.0908C116,-145.1328 116,-182 116,-182 116,-182 1174.0995,-182 1174.0995,-182"/>
<polygon fill="#000000" stroke="#000000" points="1174.0995,-185.5001 1184.0995,-182 1174.0995,-178.5001 1174.0995,-185.5001"/>
</g>
</g>
</svg>
