<?xml version="1.0" encoding="UTF-8" standalone="no"?>
<!DOCTYPE svg PUBLIC "-//W3C//DTD SVG 1.1//EN"
 "http://www.w3.org/Graphics/SVG/1.1/DTD/svg11.dtd">
<!-- Generated by graphviz version 2.40.1 (20161225.0304)
 -->
<!-- Title: dependencies Pages: 1 -->
<svg width="1186pt" height="211pt"
 viewBox="0.00 0.00 1186.00 211.00" xmlns="http://www.w3.org/2000/svg" xmlns:xlink="http://www.w3.org/1999/xlink">
<g id="graph0" class="graph" transform="scale(1 1) rotate(0) translate(4 207)">
<title>dependencies</title>
<polygon fill="#ffffff" stroke="transparent" points="-4,4 -4,-207 1182,-207 1182,4 -4,4"/>
<text text-anchor="start" x="568.0091" y="-42.4" font-family="sans-serif" font-weight="bold" font-size="14.00" fill="#000000">Legend</text>
<polygon fill="#ffffb3" stroke="transparent" points="355,-10 355,-30 375,-30 375,-10 355,-10"/>
<text text-anchor="start" x="378.629" y="-15.4" font-family="sans-serif" font-size="14.00" fill="#000000"> &#160;Declarations</text>
<polygon fill="#8dd3c7" stroke="transparent" points="468,-10 468,-30 488,-30 488,-10 468,-10"/>
<text text-anchor="start" x="491.7251" y="-15.4" font-family="sans-serif" font-size="14.00" fill="#000000"> &#160;Module</text>
<polygon fill="#80b1d3" stroke="transparent" points="554,-10 554,-30 574,-30 574,-10 554,-10"/>
<text text-anchor="start" x="577.7812" y="-15.4" font-family="sans-serif" font-size="14.00" fill="#000000"> &#160;Bootstrap</text>
<polygon fill="#fdb462" stroke="transparent" points="651,-10 651,-30 671,-30 671,-10 651,-10"/>
<text text-anchor="start" x="674.6732" y="-15.4" font-family="sans-serif" font-size="14.00" fill="#000000"> &#160;Providers</text>
<polygon fill="#fb8072" stroke="transparent" points="747,-10 747,-30 767,-30 767,-10 747,-10"/>
<text text-anchor="start" x="770.7258" y="-15.4" font-family="sans-serif" font-size="14.00" fill="#000000"> &#160;Exports</text>
<g id="clust1" class="cluster">
<title>cluster_TestsModule</title>
<polygon fill="none" stroke="#000000" stroke-dasharray="1,5" points="8,-70 8,-195 1170,-195 1170,-70 8,-70"/>
</g>
<g id="clust2" class="cluster">
<title>cluster_TestsModule_declarations</title>
<polygon fill="none" stroke="#000000" points="174,-78 174,-130 1162,-130 1162,-78 174,-78"/>
</g>
<g id="clust9" class="cluster">
<title>cluster_TestsModule_imports</title>
<polygon fill="none" stroke="#000000" points="16,-78 16,-130 166,-130 166,-78 16,-78"/>
</g>
<!-- CreateTestComponent -->
<g id="node1" class="node">
<title>CreateTestComponent</title>
<polygon fill="#ffffb3" stroke="#000000" points="1153.9664,-122 1012.0336,-122 1012.0336,-86 1153.9664,-86 1153.9664,-122"/>
<text text-anchor="middle" x="1083" y="-99.8" font-family="Times,serif" font-size="14.00" fill="#000000">CreateTestComponent</text>
</g>
<!-- TestsModule -->
<g id="node7" class="node">
<title>TestsModule</title>
<polygon fill="#8dd3c7" stroke="#000000" points="594.5969,-187 591.5969,-191 570.5969,-191 567.5969,-187 505.4031,-187 505.4031,-151 594.5969,-151 594.5969,-187"/>
<text text-anchor="middle" x="550" y="-164.8" font-family="Times,serif" font-size="14.00" fill="#000000">TestsModule</text>
</g>
<!-- CreateTestComponent&#45;&gt;TestsModule -->
<g id="edge1" class="edge">
<title>CreateTestComponent&#45;&gt;TestsModule</title>
<path fill="none" stroke="#000000" d="M1083,-122.2921C1083,-144.2057 1083,-178 1083,-178 1083,-178 604.9839,-178 604.9839,-178"/>
<polygon fill="#000000" stroke="#000000" points="604.984,-174.5001 594.9839,-178 604.9839,-181.5001 604.984,-174.5001"/>
</g>
<!-- CreateTestsScoreComponent -->
<g id="node2" class="node">
<title>CreateTestsScoreComponent</title>
<polygon fill="#ffffb3" stroke="#000000" points="993.7836,-122 814.2164,-122 814.2164,-86 993.7836,-86 993.7836,-122"/>
<text text-anchor="middle" x="904" y="-99.8" font-family="Times,serif" font-size="14.00" fill="#000000">CreateTestsScoreComponent</text>
</g>
<!-- CreateTestsScoreComponent&#45;&gt;TestsModule -->
<g id="edge2" class="edge">
<title>CreateTestsScoreComponent&#45;&gt;TestsModule</title>
<path fill="none" stroke="#000000" d="M904,-122.1061C904,-141.3391 904,-169 904,-169 904,-169 604.8343,-169 604.8343,-169"/>
<polygon fill="#000000" stroke="#000000" points="604.8344,-165.5001 594.8343,-169 604.8343,-172.5001 604.8344,-165.5001"/>
</g>
<!-- ManageTestsComponent -->
<g id="node3" class="node">
<title>ManageTestsComponent</title>
<polygon fill="#ffffb3" stroke="#000000" points="795.9678,-122 640.0322,-122 640.0322,-86 795.9678,-86 795.9678,-122"/>
<text text-anchor="middle" x="718" y="-99.8" font-family="Times,serif" font-size="14.00" fill="#000000">ManageTestsComponent</text>
</g>
<!-- ManageTestsComponent&#45;&gt;TestsModule -->
<g id="edge3" class="edge">
<title>ManageTestsComponent&#45;&gt;TestsModule</title>
<path fill="none" stroke="#000000" d="M718,-122.027C718,-138.3976 718,-160 718,-160 718,-160 604.5798,-160 604.5798,-160"/>
<polygon fill="#000000" stroke="#000000" points="604.5799,-156.5001 594.5798,-160 604.5798,-163.5001 604.5799,-156.5001"/>
</g>
<!-- TestReportComponent -->
<g id="node4" class="node">
<title>TestReportComponent</title>
<polygon fill="#ffffb3" stroke="#000000" points="621.5379,-122 478.4621,-122 478.4621,-86 621.5379,-86 621.5379,-122"/>
<text text-anchor="middle" x="550" y="-99.8" font-family="Times,serif" font-size="14.00" fill="#000000">TestReportComponent</text>
</g>
<!-- TestReportComponent&#45;&gt;TestsModule -->
<g id="edge4" class="edge">
<title>TestReportComponent&#45;&gt;TestsModule</title>
<path fill="none" stroke="#000000" d="M550,-122.1061C550,-122.1061 550,-140.991 550,-140.991"/>
<polygon fill="#000000" stroke="#000000" points="546.5001,-140.9909 550,-150.991 553.5001,-140.991 546.5001,-140.9909"/>
</g>
<!-- TestsComponent -->
<g id="node5" class="node">
<title>TestsComponent</title>
<polygon fill="#ffffb3" stroke="#000000" points="460.3795,-122 349.6205,-122 349.6205,-86 460.3795,-86 460.3795,-122"/>
<text text-anchor="middle" x="405" y="-99.8" font-family="Times,serif" font-size="14.00" fill="#000000">TestsComponent</text>
</g>
<!-- TestsComponent&#45;&gt;TestsModule -->
<g id="edge5" class="edge">
<title>TestsComponent&#45;&gt;TestsModule</title>
<path fill="none" stroke="#000000" d="M405,-122.027C405,-138.3976 405,-160 405,-160 405,-160 495.3121,-160 495.3121,-160"/>
<polygon fill="#000000" stroke="#000000" points="495.3121,-163.5001 505.3121,-160 495.312,-156.5001 495.3121,-163.5001"/>
</g>
<!-- ViewReportComponent -->
<g id="node6" class="node">
<title>ViewReportComponent</title>
<polygon fill="#ffffb3" stroke="#000000" points="331.7534,-122 182.2466,-122 182.2466,-86 331.7534,-86 331.7534,-122"/>
<text text-anchor="middle" x="257" y="-99.8" font-family="Times,serif" font-size="14.00" fill="#000000">ViewReportComponent</text>
</g>
<!-- ViewReportComponent&#45;&gt;TestsModule -->
<g id="edge6" class="edge">
<title>ViewReportComponent&#45;&gt;TestsModule</title>
<path fill="none" stroke="#000000" d="M257,-122.1061C257,-141.3391 257,-169 257,-169 257,-169 495.1807,-169 495.1807,-169"/>
<polygon fill="#000000" stroke="#000000" points="495.1807,-172.5001 505.1807,-169 495.1806,-165.5001 495.1807,-172.5001"/>
</g>
<!-- TestsRoutingModule -->
<g id="node8" class="node">
<title>TestsRoutingModule</title>
<polygon fill="#8dd3c7" stroke="#000000" points="158.2148,-122 155.2148,-126 134.2148,-126 131.2148,-122 23.7852,-122 23.7852,-86 158.2148,-86 158.2148,-122"/>
<text text-anchor="middle" x="91" y="-99.8" font-family="Times,serif" font-size="14.00" fill="#000000">TestsRoutingModule</text>
</g>
<!-- TestsRoutingModule&#45;&gt;TestsModule -->
<g id="edge7" class="edge">
<title>TestsRoutingModule&#45;&gt;TestsModule</title>
<path fill="none" stroke="#000000" d="M91,-122.2921C91,-144.2057 91,-178 91,-178 91,-178 495.1534,-178 495.1534,-178"/>
<polygon fill="#000000" stroke="#000000" points="495.1535,-181.5001 505.1534,-178 495.1534,-174.5001 495.1535,-181.5001"/>
</g>
</g>
</svg>
