<?xml version="1.0" encoding="UTF-8" standalone="no"?>
<!DOCTYPE svg PUBLIC "-//W3C//DTD SVG 1.1//EN"
 "http://www.w3.org/Graphics/SVG/1.1/DTD/svg11.dtd">
<!-- Generated by graphviz version 2.40.1 (20161225.0304)
 -->
<!-- Title: dependencies Pages: 1 -->
<svg width="1910pt" height="284pt"
 viewBox="0.00 0.00 1910.00 284.00" xmlns="http://www.w3.org/2000/svg" xmlns:xlink="http://www.w3.org/1999/xlink">
<g id="graph0" class="graph" transform="scale(1 1) rotate(0) translate(4 280)">
<title>dependencies</title>
<polygon fill="#ffffff" stroke="transparent" points="-4,4 -4,-280 1906,-280 1906,4 -4,4"/>
<text text-anchor="start" x="930.0091" y="-42.4" font-family="sans-serif" font-weight="bold" font-size="14.00" fill="#000000">Legend</text>
<polygon fill="#ffffb3" stroke="transparent" points="717,-10 717,-30 737,-30 737,-10 717,-10"/>
<text text-anchor="start" x="740.629" y="-15.4" font-family="sans-serif" font-size="14.00" fill="#000000"> &#160;Declarations</text>
<polygon fill="#8dd3c7" stroke="transparent" points="830,-10 830,-30 850,-30 850,-10 830,-10"/>
<text text-anchor="start" x="853.7251" y="-15.4" font-family="sans-serif" font-size="14.00" fill="#000000"> &#160;Module</text>
<polygon fill="#80b1d3" stroke="transparent" points="916,-10 916,-30 936,-30 936,-10 916,-10"/>
<text text-anchor="start" x="939.7812" y="-15.4" font-family="sans-serif" font-size="14.00" fill="#000000"> &#160;Bootstrap</text>
<polygon fill="#fdb462" stroke="transparent" points="1013,-10 1013,-30 1033,-30 1033,-10 1013,-10"/>
<text text-anchor="start" x="1036.6732" y="-15.4" font-family="sans-serif" font-size="14.00" fill="#000000"> &#160;Providers</text>
<polygon fill="#fb8072" stroke="transparent" points="1109,-10 1109,-30 1129,-30 1129,-10 1109,-10"/>
<text text-anchor="start" x="1132.7258" y="-15.4" font-family="sans-serif" font-size="14.00" fill="#000000"> &#160;Exports</text>
<g id="clust1" class="cluster">
<title>cluster_ThemeModule</title>
<polygon fill="none" stroke="#000000" stroke-dasharray="1,5" points="8,-70 8,-268 1894,-268 1894,-70 8,-70"/>
</g>
<g id="clust2" class="cluster">
<title>cluster_ThemeModule_declarations</title>
<polygon fill="none" stroke="#000000" points="40,-78 40,-130 1870,-130 1870,-78 40,-78"/>
</g>
<g id="clust16" class="cluster">
<title>cluster_ThemeModule_exports</title>
<polygon fill="none" stroke="#000000" points="16,-208 16,-260 1886,-260 1886,-208 16,-208"/>
</g>
<!-- CapitalizePipe -->
<g id="node1" class="node">
<title>CapitalizePipe</title>
<polygon fill="#ffffb3" stroke="#000000" points="1861.6458,-122 1764.3542,-122 1764.3542,-86 1861.6458,-86 1861.6458,-122"/>
<text text-anchor="middle" x="1813" y="-99.8" font-family="Times,serif" font-size="14.00" fill="#000000">CapitalizePipe</text>
</g>
<!-- ThemeModule -->
<g id="node13" class="node">
<title>ThemeModule</title>
<polygon fill="#8dd3c7" stroke="#000000" points="1007.4231,-187 1004.4231,-191 983.4231,-191 980.4231,-187 908.5769,-187 908.5769,-151 1007.4231,-151 1007.4231,-187"/>
<text text-anchor="middle" x="958" y="-164.8" font-family="Times,serif" font-size="14.00" fill="#000000">ThemeModule</text>
</g>
<!-- CapitalizePipe&#45;&gt;ThemeModule -->
<g id="edge1" class="edge">
<title>CapitalizePipe&#45;&gt;ThemeModule</title>
<path fill="none" stroke="#000000" d="M1770.3024,-122.1686C1770.3024,-141.0898 1770.3024,-168 1770.3024,-168 1770.3024,-168 1017.2867,-168 1017.2867,-168"/>
<polygon fill="#000000" stroke="#000000" points="1017.2867,-164.5001 1007.2867,-168 1017.2867,-171.5001 1017.2867,-164.5001"/>
</g>
<!-- FooterComponent -->
<g id="node2" class="node">
<title>FooterComponent</title>
<polygon fill="#ffffb3" stroke="#000000" points="1745.8809,-122 1628.1191,-122 1628.1191,-86 1745.8809,-86 1745.8809,-122"/>
<text text-anchor="middle" x="1687" y="-99.8" font-family="Times,serif" font-size="14.00" fill="#000000">FooterComponent</text>
</g>
<!-- FooterComponent&#45;&gt;ThemeModule -->
<g id="edge2" class="edge">
<title>FooterComponent&#45;&gt;ThemeModule</title>
<path fill="none" stroke="#000000" d="M1632.6846,-122.302C1632.6846,-140.2699 1632.6846,-165 1632.6846,-165 1632.6846,-165 1017.3378,-165 1017.3378,-165"/>
<polygon fill="#000000" stroke="#000000" points="1017.3379,-161.5001 1007.3378,-165 1017.3378,-168.5001 1017.3379,-161.5001"/>
</g>
<!-- HeaderComponent -->
<g id="node3" class="node">
<title>HeaderComponent</title>
<polygon fill="#ffffb3" stroke="#000000" points="1609.7437,-122 1488.2563,-122 1488.2563,-86 1609.7437,-86 1609.7437,-122"/>
<text text-anchor="middle" x="1549" y="-99.8" font-family="Times,serif" font-size="14.00" fill="#000000">HeaderComponent</text>
</g>
<!-- HeaderComponent&#45;&gt;ThemeModule -->
<g id="edge3" class="edge">
<title>HeaderComponent&#45;&gt;ThemeModule</title>
<path fill="none" stroke="#000000" d="M1571.3739,-122.0352C1571.3739,-138.7344 1571.3739,-161 1571.3739,-161 1571.3739,-161 1017.4165,-161 1017.4165,-161"/>
<polygon fill="#000000" stroke="#000000" points="1017.4165,-157.5001 1007.4165,-161 1017.4164,-164.5001 1017.4165,-157.5001"/>
</g>
<!-- NumberWithCommasPipe -->
<g id="node4" class="node">
<title>NumberWithCommasPipe</title>
<polygon fill="#ffffb3" stroke="#000000" points="1470.0337,-122 1305.9663,-122 1305.9663,-86 1470.0337,-86 1470.0337,-122"/>
<text text-anchor="middle" x="1388" y="-99.8" font-family="Times,serif" font-size="14.00" fill="#000000">NumberWithCommasPipe</text>
</g>
<!-- NumberWithCommasPipe&#45;&gt;ThemeModule -->
<g id="edge4" class="edge">
<title>NumberWithCommasPipe&#45;&gt;ThemeModule</title>
<path fill="none" stroke="#000000" d="M1416.1722,-122.2819C1416.1722,-137.9478 1416.1722,-158 1416.1722,-158 1416.1722,-158 1017.4678,-158 1017.4678,-158"/>
<polygon fill="#000000" stroke="#000000" points="1017.4678,-154.5001 1007.4678,-158 1017.4677,-161.5001 1017.4678,-154.5001"/>
</g>
<!-- OneColumnLayoutComponent -->
<g id="node5" class="node">
<title>OneColumnLayoutComponent</title>
<polygon fill="#ffffb3" stroke="#000000" points="1287.9297,-122 1098.0703,-122 1098.0703,-86 1287.9297,-86 1287.9297,-122"/>
<text text-anchor="middle" x="1193" y="-99.8" font-family="Times,serif" font-size="14.00" fill="#000000">OneColumnLayoutComponent</text>
</g>
<!-- OneColumnLayoutComponent&#45;&gt;ThemeModule -->
<g id="edge5" class="edge">
<title>OneColumnLayoutComponent&#45;&gt;ThemeModule</title>
<path fill="none" stroke="#000000" d="M1224.5715,-122.1243C1224.5715,-136.7832 1224.5715,-155 1224.5715,-155 1224.5715,-155 1017.5153,-155 1017.5153,-155"/>
<polygon fill="#000000" stroke="#000000" points="1017.5154,-151.5001 1007.5153,-155 1017.5153,-158.5001 1017.5154,-151.5001"/>
</g>
<!-- PluralPipe -->
<g id="node6" class="node">
<title>PluralPipe</title>
<polygon fill="#ffffb3" stroke="#000000" points="1080.3275,-122 1005.6725,-122 1005.6725,-86 1080.3275,-86 1080.3275,-122"/>
<text text-anchor="middle" x="1043" y="-99.8" font-family="Times,serif" font-size="14.00" fill="#000000">PluralPipe</text>
</g>
<!-- PluralPipe&#45;&gt;ThemeModule -->
<g id="edge6" class="edge">
<title>PluralPipe&#45;&gt;ThemeModule</title>
<path fill="none" stroke="#000000" d="M1005.4162,-104C1000.4156,-104 996.9744,-104 996.9744,-104 996.9744,-104 996.9744,-140.8939 996.9744,-140.8939"/>
<polygon fill="#000000" stroke="#000000" points="993.4745,-140.8938 996.9744,-150.8939 1000.4745,-140.8939 993.4745,-140.8938"/>
</g>
<!-- RoundPipe -->
<g id="node7" class="node">
<title>RoundPipe</title>
<polygon fill="#ffffb3" stroke="#000000" points="988.2247,-122 909.7753,-122 909.7753,-86 988.2247,-86 988.2247,-122"/>
<text text-anchor="middle" x="949" y="-99.8" font-family="Times,serif" font-size="14.00" fill="#000000">RoundPipe</text>
</g>
<!-- RoundPipe&#45;&gt;ThemeModule -->
<g id="edge7" class="edge">
<title>RoundPipe&#45;&gt;ThemeModule</title>
<path fill="none" stroke="#000000" d="M949,-122.1061C949,-122.1061 949,-140.991 949,-140.991"/>
<polygon fill="#000000" stroke="#000000" points="945.5001,-140.9909 949,-150.991 952.5001,-140.991 945.5001,-140.9909"/>
</g>
<!-- SearchInputComponent -->
<g id="node8" class="node">
<title>SearchInputComponent</title>
<polygon fill="#ffffb3" stroke="#000000" points="891.4706,-122 742.5294,-122 742.5294,-86 891.4706,-86 891.4706,-122"/>
<text text-anchor="middle" x="817" y="-99.8" font-family="Times,serif" font-size="14.00" fill="#000000">SearchInputComponent</text>
</g>
<!-- SearchInputComponent&#45;&gt;ThemeModule -->
<g id="edge8" class="edge">
<title>SearchInputComponent&#45;&gt;ThemeModule</title>
<path fill="none" stroke="#000000" d="M887.8603,-122.1243C887.8603,-136.7832 887.8603,-155 887.8603,-155 887.8603,-155 898.5252,-155 898.5252,-155"/>
<polygon fill="#000000" stroke="#000000" points="898.5252,-158.5001 908.5252,-155 898.5251,-151.5001 898.5252,-158.5001"/>
</g>
<!-- ThreeColumnsLayoutComponent -->
<g id="node9" class="node">
<title>ThreeColumnsLayoutComponent</title>
<polygon fill="#ffffb3" stroke="#000000" points="724.1951,-122 519.8049,-122 519.8049,-86 724.1951,-86 724.1951,-122"/>
<text text-anchor="middle" x="622" y="-99.8" font-family="Times,serif" font-size="14.00" fill="#000000">ThreeColumnsLayoutComponent</text>
</g>
<!-- ThreeColumnsLayoutComponent&#45;&gt;ThemeModule -->
<g id="edge9" class="edge">
<title>ThreeColumnsLayoutComponent&#45;&gt;ThemeModule</title>
<path fill="none" stroke="#000000" d="M718.9725,-122.2819C718.9725,-137.9478 718.9725,-158 718.9725,-158 718.9725,-158 898.7632,-158 898.7632,-158"/>
<polygon fill="#000000" stroke="#000000" points="898.7632,-161.5001 908.7632,-158 898.7631,-154.5001 898.7632,-161.5001"/>
</g>
<!-- TimingPipe -->
<g id="node10" class="node">
<title>TimingPipe</title>
<polygon fill="#ffffb3" stroke="#000000" points="502.1123,-122 419.8877,-122 419.8877,-86 502.1123,-86 502.1123,-122"/>
<text text-anchor="middle" x="461" y="-99.8" font-family="Times,serif" font-size="14.00" fill="#000000">TimingPipe</text>
</g>
<!-- TimingPipe&#45;&gt;ThemeModule -->
<g id="edge10" class="edge">
<title>TimingPipe&#45;&gt;ThemeModule</title>
<path fill="none" stroke="#000000" d="M494.9311,-122.0352C494.9311,-138.7344 494.9311,-161 494.9311,-161 494.9311,-161 898.4435,-161 898.4435,-161"/>
<polygon fill="#000000" stroke="#000000" points="898.4436,-164.5001 908.4435,-161 898.4435,-157.5001 898.4436,-164.5001"/>
</g>
<!-- TinyMCEComponent -->
<g id="node11" class="node">
<title>TinyMCEComponent</title>
<polygon fill="#ffffb3" stroke="#000000" points="402.1094,-122 263.8906,-122 263.8906,-86 402.1094,-86 402.1094,-122"/>
<text text-anchor="middle" x="333" y="-99.8" font-family="Times,serif" font-size="14.00" fill="#000000">TinyMCEComponent</text>
</g>
<!-- TinyMCEComponent&#45;&gt;ThemeModule -->
<g id="edge11" class="edge">
<title>TinyMCEComponent&#45;&gt;ThemeModule</title>
<path fill="none" stroke="#000000" d="M392.9297,-122.302C392.9297,-140.2699 392.9297,-165 392.9297,-165 392.9297,-165 898.349,-165 898.349,-165"/>
<polygon fill="#000000" stroke="#000000" points="898.3491,-168.5001 908.349,-165 898.349,-161.5001 898.3491,-168.5001"/>
</g>
<!-- TwoColumnsLayoutComponent -->
<g id="node12" class="node">
<title>TwoColumnsLayoutComponent</title>
<polygon fill="#ffffb3" stroke="#000000" points="245.7119,-122 48.2881,-122 48.2881,-86 245.7119,-86 245.7119,-122"/>
<text text-anchor="middle" x="147" y="-99.8" font-family="Times,serif" font-size="14.00" fill="#000000">TwoColumnsLayoutComponent</text>
</g>
<!-- TwoColumnsLayoutComponent&#45;&gt;ThemeModule -->
<g id="edge12" class="edge">
<title>TwoColumnsLayoutComponent&#45;&gt;ThemeModule</title>
<path fill="none" stroke="#000000" d="M233.2756,-122.1686C233.2756,-141.0898 233.2756,-168 233.2756,-168 233.2756,-168 898.7565,-168 898.7565,-168"/>
<polygon fill="#000000" stroke="#000000" points="898.7566,-171.5001 908.7565,-168 898.7565,-164.5001 898.7566,-171.5001"/>
</g>
<!-- CapitalizePipe  -->
<g id="node14" class="node">
<title>CapitalizePipe </title>
<polygon fill="#fb8072" stroke="#000000" points="1877.6453,-252 1776.3547,-252 1776.3547,-216 1877.6453,-216 1877.6453,-252"/>
<text text-anchor="middle" x="1827" y="-229.8" font-family="Times,serif" font-size="14.00" fill="#000000">CapitalizePipe </text>
</g>
<!-- ThemeModule&#45;&gt;CapitalizePipe  -->
<g id="edge13" class="edge">
<title>ThemeModule&#45;&gt;CapitalizePipe </title>
<path fill="none" stroke="#000000" stroke-dasharray="5,2" d="M1007.3907,-171C1190.3686,-171 1819.125,-171 1819.125,-171 1819.125,-171 1819.125,-205.7778 1819.125,-205.7778"/>
<polygon fill="#000000" stroke="#000000" points="1815.6251,-205.7778 1819.125,-215.7778 1822.6251,-205.7778 1815.6251,-205.7778"/>
</g>
<!-- FooterComponent  -->
<g id="node15" class="node">
<title>FooterComponent </title>
<polygon fill="#fb8072" stroke="#000000" points="1758.8814,-252 1637.1186,-252 1637.1186,-216 1758.8814,-216 1758.8814,-252"/>
<text text-anchor="middle" x="1698" y="-229.8" font-family="Times,serif" font-size="14.00" fill="#000000">FooterComponent </text>
</g>
<!-- ThemeModule&#45;&gt;FooterComponent  -->
<g id="edge14" class="edge">
<title>ThemeModule&#45;&gt;FooterComponent </title>
<path fill="none" stroke="#000000" stroke-dasharray="5,2" d="M1007.2744,-174C1171.7622,-174 1691.625,-174 1691.625,-174 1691.625,-174 1691.625,-205.998 1691.625,-205.998"/>
<polygon fill="#000000" stroke="#000000" points="1688.1251,-205.998 1691.625,-215.998 1695.1251,-205.9981 1688.1251,-205.998"/>
</g>
<!-- HeaderComponent  -->
<g id="node16" class="node">
<title>HeaderComponent </title>
<polygon fill="#fb8072" stroke="#000000" points="1619.7436,-252 1494.2564,-252 1494.2564,-216 1619.7436,-216 1619.7436,-252"/>
<text text-anchor="middle" x="1557" y="-229.8" font-family="Times,serif" font-size="14.00" fill="#000000">HeaderComponent </text>
</g>
<!-- ThemeModule&#45;&gt;HeaderComponent  -->
<g id="edge15" class="edge">
<title>ThemeModule&#45;&gt;HeaderComponent </title>
<path fill="none" stroke="#000000" stroke-dasharray="5,2" d="M1007.5112,-178C1146.9552,-178 1532.8761,-178 1532.8761,-178 1532.8761,-178 1532.8761,-205.973 1532.8761,-205.973"/>
<polygon fill="#000000" stroke="#000000" points="1529.3762,-205.973 1532.8761,-215.973 1536.3762,-205.973 1529.3762,-205.973"/>
</g>
<!-- NumberWithCommasPipe  -->
<g id="node17" class="node">
<title>NumberWithCommasPipe </title>
<polygon fill="#fb8072" stroke="#000000" points="1476.033,-252 1307.967,-252 1307.967,-216 1476.033,-216 1476.033,-252"/>
<text text-anchor="middle" x="1392" y="-229.8" font-family="Times,serif" font-size="14.00" fill="#000000">NumberWithCommasPipe </text>
</g>
<!-- ThemeModule&#45;&gt;NumberWithCommasPipe  -->
<g id="edge16" class="edge">
<title>ThemeModule&#45;&gt;NumberWithCommasPipe </title>
<path fill="none" stroke="#000000" stroke-dasharray="5,2" d="M1007.5479,-181C1115.4483,-181 1362.0778,-181 1362.0778,-181 1362.0778,-181 1362.0778,-205.7604 1362.0778,-205.7604"/>
<polygon fill="#000000" stroke="#000000" points="1358.5779,-205.7604 1362.0778,-215.7604 1365.5779,-205.7604 1358.5779,-205.7604"/>
</g>
<!-- OneColumnLayoutComponent  -->
<g id="node18" class="node">
<title>OneColumnLayoutComponent </title>
<polygon fill="#fb8072" stroke="#000000" points="1290.4292,-252 1097.5708,-252 1097.5708,-216 1290.4292,-216 1290.4292,-252"/>
<text text-anchor="middle" x="1194" y="-229.8" font-family="Times,serif" font-size="14.00" fill="#000000">OneColumnLayoutComponent </text>
</g>
<!-- ThemeModule&#45;&gt;OneColumnLayoutComponent  -->
<g id="edge17" class="edge">
<title>ThemeModule&#45;&gt;OneColumnLayoutComponent </title>
<path fill="none" stroke="#000000" stroke-dasharray="5,2" d="M1007.2444,-184C1067.4496,-184 1161.4285,-184 1161.4285,-184 1161.4285,-184 1161.4285,-205.9489 1161.4285,-205.9489"/>
<polygon fill="#000000" stroke="#000000" points="1157.9286,-205.9488 1161.4285,-215.9489 1164.9286,-205.9489 1157.9286,-205.9488"/>
</g>
<!-- PluralPipe  -->
<g id="node19" class="node">
<title>PluralPipe </title>
<polygon fill="#fb8072" stroke="#000000" points="1079.827,-252 1002.173,-252 1002.173,-216 1079.827,-216 1079.827,-252"/>
<text text-anchor="middle" x="1041" y="-229.8" font-family="Times,serif" font-size="14.00" fill="#000000">PluralPipe </text>
</g>
<!-- ThemeModule&#45;&gt;PluralPipe  -->
<g id="edge18" class="edge">
<title>ThemeModule&#45;&gt;PluralPipe </title>
<path fill="none" stroke="#000000" stroke-dasharray="5,2" d="M992.9744,-187.1061C992.9744,-206.3391 992.9744,-234 992.9744,-234 992.9744,-234 993.8553,-234 993.8553,-234"/>
<polygon fill="#000000" stroke="#000000" points="991.7831,-237.5001 1001.783,-234 991.783,-230.5001 991.7831,-237.5001"/>
</g>
<!-- RoundPipe  -->
<g id="node20" class="node">
<title>RoundPipe </title>
<polygon fill="#fb8072" stroke="#000000" points="983.7249,-252 902.2751,-252 902.2751,-216 983.7249,-216 983.7249,-252"/>
<text text-anchor="middle" x="943" y="-229.8" font-family="Times,serif" font-size="14.00" fill="#000000">RoundPipe </text>
</g>
<!-- ThemeModule&#45;&gt;RoundPipe  -->
<g id="edge19" class="edge">
<title>ThemeModule&#45;&gt;RoundPipe </title>
<path fill="none" stroke="#000000" stroke-dasharray="5,2" d="M946.3256,-187.1061C946.3256,-187.1061 946.3256,-205.991 946.3256,-205.991"/>
<polygon fill="#000000" stroke="#000000" points="942.8256,-205.9909 946.3256,-215.991 949.8256,-205.991 942.8256,-205.9909"/>
</g>
<!-- SearchInputComponent  -->
<g id="node21" class="node">
<title>SearchInputComponent </title>
<polygon fill="#fb8072" stroke="#000000" points="884.4713,-252 731.5287,-252 731.5287,-216 884.4713,-216 884.4713,-252"/>
<text text-anchor="middle" x="808" y="-229.8" font-family="Times,serif" font-size="14.00" fill="#000000">SearchInputComponent </text>
</g>
<!-- ThemeModule&#45;&gt;SearchInputComponent  -->
<g id="edge20" class="edge">
<title>ThemeModule&#45;&gt;SearchInputComponent </title>
<path fill="none" stroke="#000000" stroke-dasharray="5,2" d="M908.6328,-184C866.736,-184 813.375,-184 813.375,-184 813.375,-184 813.375,-205.9489 813.375,-205.9489"/>
<polygon fill="#000000" stroke="#000000" points="809.8751,-205.9488 813.375,-215.9489 816.8751,-205.9489 809.8751,-205.9488"/>
</g>
<!-- ThreeColumnsLayoutComponent  -->
<g id="node22" class="node">
<title>ThreeColumnsLayoutComponent </title>
<polygon fill="#fb8072" stroke="#000000" points="713.6952,-252 506.3048,-252 506.3048,-216 713.6952,-216 713.6952,-252"/>
<text text-anchor="middle" x="610" y="-229.8" font-family="Times,serif" font-size="14.00" fill="#000000">ThreeColumnsLayoutComponent </text>
</g>
<!-- ThemeModule&#45;&gt;ThreeColumnsLayoutComponent  -->
<g id="edge21" class="edge">
<title>ThemeModule&#45;&gt;ThreeColumnsLayoutComponent </title>
<path fill="none" stroke="#000000" stroke-dasharray="5,2" d="M908.7618,-181C814.2938,-181 616.875,-181 616.875,-181 616.875,-181 616.875,-205.7604 616.875,-205.7604"/>
<polygon fill="#000000" stroke="#000000" points="613.3751,-205.7604 616.875,-215.7604 620.3751,-205.7604 613.3751,-205.7604"/>
</g>
<!-- TimingPipe  -->
<g id="node23" class="node">
<title>TimingPipe </title>
<polygon fill="#fb8072" stroke="#000000" points="487.6131,-252 402.3869,-252 402.3869,-216 487.6131,-216 487.6131,-252"/>
<text text-anchor="middle" x="445" y="-229.8" font-family="Times,serif" font-size="14.00" fill="#000000">TimingPipe </text>
</g>
<!-- ThemeModule&#45;&gt;TimingPipe  -->
<g id="edge22" class="edge">
<title>ThemeModule&#45;&gt;TimingPipe </title>
<path fill="none" stroke="#000000" stroke-dasharray="5,2" d="M908.7445,-178C781.8936,-178 453.875,-178 453.875,-178 453.875,-178 453.875,-205.973 453.875,-205.973"/>
<polygon fill="#000000" stroke="#000000" points="450.3751,-205.973 453.875,-215.973 457.3751,-205.973 450.3751,-205.973"/>
</g>
<!-- TinyMCEComponent  -->
<g id="node24" class="node">
<title>TinyMCEComponent </title>
<polygon fill="#fb8072" stroke="#000000" points="383.6099,-252 242.3901,-252 242.3901,-216 383.6099,-216 383.6099,-252"/>
<text text-anchor="middle" x="313" y="-229.8" font-family="Times,serif" font-size="14.00" fill="#000000">TinyMCEComponent </text>
</g>
<!-- ThemeModule&#45;&gt;TinyMCEComponent  -->
<g id="edge23" class="edge">
<title>ThemeModule&#45;&gt;TinyMCEComponent </title>
<path fill="none" stroke="#000000" stroke-dasharray="5,2" d="M908.7689,-174C759.7785,-174 323.875,-174 323.875,-174 323.875,-174 323.875,-205.998 323.875,-205.998"/>
<polygon fill="#000000" stroke="#000000" points="320.3751,-205.998 323.875,-215.998 327.3751,-205.9981 320.3751,-205.998"/>
</g>
<!-- TwoColumnsLayoutComponent  -->
<g id="node25" class="node">
<title>TwoColumnsLayoutComponent </title>
<polygon fill="#fb8072" stroke="#000000" points="224.212,-252 23.788,-252 23.788,-216 224.212,-216 224.212,-252"/>
<text text-anchor="middle" x="124" y="-229.8" font-family="Times,serif" font-size="14.00" fill="#000000">TwoColumnsLayoutComponent </text>
</g>
<!-- ThemeModule&#45;&gt;TwoColumnsLayoutComponent  -->
<g id="edge24" class="edge">
<title>ThemeModule&#45;&gt;TwoColumnsLayoutComponent </title>
<path fill="none" stroke="#000000" stroke-dasharray="5,2" d="M908.7595,-171C731.5004,-171 136.375,-171 136.375,-171 136.375,-171 136.375,-205.7778 136.375,-205.7778"/>
<polygon fill="#000000" stroke="#000000" points="132.8751,-205.7778 136.375,-215.7778 139.8751,-205.7778 132.8751,-205.7778"/>
</g>
</g>
</svg>
