<?xml version="1.0" encoding="UTF-8" standalone="no"?>
<!DOCTYPE svg PUBLIC "-//W3C//DTD SVG 1.1//EN"
 "http://www.w3.org/Graphics/SVG/1.1/DTD/svg11.dtd">
<!-- Generated by graphviz version 2.40.1 (20161225.0304)
 -->
<!-- Title: dependencies Pages: 1 -->
<svg width="1786pt" height="211pt"
 viewBox="0.00 0.00 1786.00 211.00" xmlns="http://www.w3.org/2000/svg" xmlns:xlink="http://www.w3.org/1999/xlink">
<g id="graph0" class="graph" transform="scale(1 1) rotate(0) translate(4 207)">
<title>dependencies</title>
<polygon fill="#ffffff" stroke="transparent" points="-4,4 -4,-207 1782,-207 1782,4 -4,4"/>
<text text-anchor="start" x="868.0091" y="-42.4" font-family="sans-serif" font-weight="bold" font-size="14.00" fill="#000000">Legend</text>
<polygon fill="#ffffb3" stroke="transparent" points="655,-10 655,-30 675,-30 675,-10 655,-10"/>
<text text-anchor="start" x="678.629" y="-15.4" font-family="sans-serif" font-size="14.00" fill="#000000"> &#160;Declarations</text>
<polygon fill="#8dd3c7" stroke="transparent" points="768,-10 768,-30 788,-30 788,-10 768,-10"/>
<text text-anchor="start" x="791.7251" y="-15.4" font-family="sans-serif" font-size="14.00" fill="#000000"> &#160;Module</text>
<polygon fill="#80b1d3" stroke="transparent" points="854,-10 854,-30 874,-30 874,-10 854,-10"/>
<text text-anchor="start" x="877.7812" y="-15.4" font-family="sans-serif" font-size="14.00" fill="#000000"> &#160;Bootstrap</text>
<polygon fill="#fdb462" stroke="transparent" points="951,-10 951,-30 971,-30 971,-10 951,-10"/>
<text text-anchor="start" x="974.6732" y="-15.4" font-family="sans-serif" font-size="14.00" fill="#000000"> &#160;Providers</text>
<polygon fill="#fb8072" stroke="transparent" points="1047,-10 1047,-30 1067,-30 1067,-10 1047,-10"/>
<text text-anchor="start" x="1070.7258" y="-15.4" font-family="sans-serif" font-size="14.00" fill="#000000"> &#160;Exports</text>
<g id="clust1" class="cluster">
<title>cluster_CommunicationModule</title>
<polygon fill="none" stroke="#000000" stroke-dasharray="1,5" points="8,-70 8,-195 1770,-195 1770,-70 8,-70"/>
</g>
<g id="clust2" class="cluster">
<title>cluster_CommunicationModule_declarations</title>
<polygon fill="none" stroke="#000000" points="299,-78 299,-130 1762,-130 1762,-78 299,-78"/>
</g>
<g id="clust11" class="cluster">
<title>cluster_CommunicationModule_imports</title>
<polygon fill="none" stroke="#000000" points="16,-78 16,-130 291,-130 291,-78 16,-78"/>
</g>
<!-- AddForumComponent -->
<g id="node1" class="node">
<title>AddForumComponent</title>
<polygon fill="#ffffb3" stroke="#000000" points="1754.273,-122 1611.727,-122 1611.727,-86 1754.273,-86 1754.273,-122"/>
<text text-anchor="middle" x="1683" y="-99.8" font-family="Times,serif" font-size="14.00" fill="#000000">AddForumComponent</text>
</g>
<!-- CommunicationModule -->
<g id="node9" class="node">
<title>CommunicationModule</title>
<polygon fill="#8dd3c7" stroke="#000000" points="969.7688,-187 966.7688,-191 945.7688,-191 942.7688,-187 820.2312,-187 820.2312,-151 969.7688,-151 969.7688,-187"/>
<text text-anchor="middle" x="895" y="-164.8" font-family="Times,serif" font-size="14.00" fill="#000000">CommunicationModule</text>
</g>
<!-- AddForumComponent&#45;&gt;CommunicationModule -->
<g id="edge1" class="edge">
<title>AddForumComponent&#45;&gt;CommunicationModule</title>
<path fill="none" stroke="#000000" d="M1683,-122.0109C1683,-144.4852 1683,-180 1683,-180 1683,-180 979.8435,-180 979.8435,-180"/>
<polygon fill="#000000" stroke="#000000" points="979.8436,-176.5001 969.8435,-180 979.8435,-183.5001 979.8436,-176.5001"/>
</g>
<!-- AnnouncementsComponent -->
<g id="node2" class="node">
<title>AnnouncementsComponent</title>
<polygon fill="#ffffb3" stroke="#000000" points="1593.3089,-122 1420.6911,-122 1420.6911,-86 1593.3089,-86 1593.3089,-122"/>
<text text-anchor="middle" x="1507" y="-99.8" font-family="Times,serif" font-size="14.00" fill="#000000">AnnouncementsComponent</text>
</g>
<!-- AnnouncementsComponent&#45;&gt;CommunicationModule -->
<g id="edge2" class="edge">
<title>AnnouncementsComponent&#45;&gt;CommunicationModule</title>
<path fill="none" stroke="#000000" d="M1507,-122.1289C1507,-142.5724 1507,-173 1507,-173 1507,-173 980.0432,-173 980.0432,-173"/>
<polygon fill="#000000" stroke="#000000" points="980.0432,-169.5001 970.0432,-173 980.0432,-176.5001 980.0432,-169.5001"/>
</g>
<!-- CommunicationComponent -->
<g id="node3" class="node">
<title>CommunicationComponent</title>
<polygon fill="#ffffb3" stroke="#000000" points="1402.5518,-122 1231.4482,-122 1231.4482,-86 1402.5518,-86 1402.5518,-122"/>
<text text-anchor="middle" x="1317" y="-99.8" font-family="Times,serif" font-size="14.00" fill="#000000">CommunicationComponent</text>
</g>
<!-- CommunicationComponent&#45;&gt;CommunicationModule -->
<g id="edge3" class="edge">
<title>CommunicationComponent&#45;&gt;CommunicationModule</title>
<path fill="none" stroke="#000000" d="M1317,-122.2667C1317,-140.5552 1317,-166 1317,-166 1317,-166 979.9589,-166 979.9589,-166"/>
<polygon fill="#000000" stroke="#000000" points="979.9589,-162.5001 969.9589,-166 979.9588,-169.5001 979.9589,-162.5001"/>
</g>
<!-- ForumComponent -->
<g id="node4" class="node">
<title>ForumComponent</title>
<polygon fill="#ffffb3" stroke="#000000" points="1213.1667,-122 1094.8333,-122 1094.8333,-86 1213.1667,-86 1213.1667,-122"/>
<text text-anchor="middle" x="1154" y="-99.8" font-family="Times,serif" font-size="14.00" fill="#000000">ForumComponent</text>
</g>
<!-- ForumComponent&#45;&gt;CommunicationModule -->
<g id="edge4" class="edge">
<title>ForumComponent&#45;&gt;CommunicationModule</title>
<path fill="none" stroke="#000000" d="M1154,-122.0091C1154,-138.0494 1154,-159 1154,-159 1154,-159 979.9135,-159 979.9135,-159"/>
<polygon fill="#000000" stroke="#000000" points="979.9136,-155.5001 969.9135,-159 979.9135,-162.5001 979.9136,-155.5001"/>
</g>
<!-- ForumDetailsComponent -->
<g id="node5" class="node">
<title>ForumDetailsComponent</title>
<polygon fill="#ffffb3" stroke="#000000" points="1077.3187,-122 918.6813,-122 918.6813,-86 1077.3187,-86 1077.3187,-122"/>
<text text-anchor="middle" x="998" y="-99.8" font-family="Times,serif" font-size="14.00" fill="#000000">ForumDetailsComponent</text>
</g>
<!-- ForumDetailsComponent&#45;&gt;CommunicationModule -->
<g id="edge5" class="edge">
<title>ForumDetailsComponent&#45;&gt;CommunicationModule</title>
<path fill="none" stroke="#000000" d="M944.3626,-122.1061C944.3626,-122.1061 944.3626,-140.991 944.3626,-140.991"/>
<polygon fill="#000000" stroke="#000000" points="940.8626,-140.9909 944.3626,-150.991 947.8626,-140.991 940.8626,-140.9909"/>
</g>
<!-- ManageAnnouncementsComponent -->
<g id="node6" class="node">
<title>ManageAnnouncementsComponent</title>
<polygon fill="#ffffb3" stroke="#000000" points="900.8974,-122 683.1026,-122 683.1026,-86 900.8974,-86 900.8974,-122"/>
<text text-anchor="middle" x="792" y="-99.8" font-family="Times,serif" font-size="14.00" fill="#000000">ManageAnnouncementsComponent</text>
</g>
<!-- ManageAnnouncementsComponent&#45;&gt;CommunicationModule -->
<g id="edge6" class="edge">
<title>ManageAnnouncementsComponent&#45;&gt;CommunicationModule</title>
<path fill="none" stroke="#000000" d="M860.4071,-122.1061C860.4071,-122.1061 860.4071,-140.991 860.4071,-140.991"/>
<polygon fill="#000000" stroke="#000000" points="856.9072,-140.9909 860.4071,-150.991 863.9072,-140.991 856.9072,-140.9909"/>
</g>
<!-- MyForumComponent -->
<g id="node7" class="node">
<title>MyForumComponent</title>
<polygon fill="#ffffb3" stroke="#000000" points="665.1108,-122 526.8892,-122 526.8892,-86 665.1108,-86 665.1108,-122"/>
<text text-anchor="middle" x="596" y="-99.8" font-family="Times,serif" font-size="14.00" fill="#000000">MyForumComponent</text>
</g>
<!-- MyForumComponent&#45;&gt;CommunicationModule -->
<g id="edge7" class="edge">
<title>MyForumComponent&#45;&gt;CommunicationModule</title>
<path fill="none" stroke="#000000" d="M596,-122.0091C596,-138.0494 596,-159 596,-159 596,-159 809.9356,-159 809.9356,-159"/>
<polygon fill="#000000" stroke="#000000" points="809.9356,-162.5001 819.9356,-159 809.9356,-155.5001 809.9356,-162.5001"/>
</g>
<!-- ViewAnnouncementsComponent -->
<g id="node8" class="node">
<title>ViewAnnouncementsComponent</title>
<polygon fill="#ffffb3" stroke="#000000" points="509.1273,-122 306.8727,-122 306.8727,-86 509.1273,-86 509.1273,-122"/>
<text text-anchor="middle" x="408" y="-99.8" font-family="Times,serif" font-size="14.00" fill="#000000">ViewAnnouncementsComponent</text>
</g>
<!-- ViewAnnouncementsComponent&#45;&gt;CommunicationModule -->
<g id="edge8" class="edge">
<title>ViewAnnouncementsComponent&#45;&gt;CommunicationModule</title>
<path fill="none" stroke="#000000" d="M408,-122.2667C408,-140.5552 408,-166 408,-166 408,-166 809.9735,-166 809.9735,-166"/>
<polygon fill="#000000" stroke="#000000" points="809.9736,-169.5001 819.9735,-166 809.9735,-162.5001 809.9736,-169.5001"/>
</g>
<!-- CommRoutingModule -->
<g id="node10" class="node">
<title>CommRoutingModule</title>
<polygon fill="#8dd3c7" stroke="#000000" points="283.2856,-122 280.2856,-126 259.2856,-126 256.2856,-122 140.7144,-122 140.7144,-86 283.2856,-86 283.2856,-122"/>
<text text-anchor="middle" x="212" y="-99.8" font-family="Times,serif" font-size="14.00" fill="#000000">CommRoutingModule</text>
</g>
<!-- CommRoutingModule&#45;&gt;CommunicationModule -->
<g id="edge9" class="edge">
<title>CommRoutingModule&#45;&gt;CommunicationModule</title>
<path fill="none" stroke="#000000" d="M212,-122.1289C212,-142.5724 212,-173 212,-173 212,-173 809.9533,-173 809.9533,-173"/>
<polygon fill="#000000" stroke="#000000" points="809.9533,-176.5001 819.9533,-173 809.9533,-169.5001 809.9533,-176.5001"/>
</g>
<!-- SharedModule -->
<g id="node11" class="node">
<title>SharedModule</title>
<polygon fill="#8dd3c7" stroke="#000000" points="122.4231,-122 119.4231,-126 98.4231,-126 95.4231,-122 23.5769,-122 23.5769,-86 122.4231,-86 122.4231,-122"/>
<text text-anchor="middle" x="73" y="-99.8" font-family="Times,serif" font-size="14.00" fill="#000000">SharedModule</text>
</g>
<!-- SharedModule&#45;&gt;CommunicationModule -->
<g id="edge10" class="edge">
<title>SharedModule&#45;&gt;CommunicationModule</title>
<path fill="none" stroke="#000000" d="M73,-122.0109C73,-144.4852 73,-180 73,-180 73,-180 809.8739,-180 809.8739,-180"/>
<polygon fill="#000000" stroke="#000000" points="809.8739,-183.5001 819.8739,-180 809.8738,-176.5001 809.8739,-183.5001"/>
</g>
</g>
</svg>
