<?xml version="1.0" encoding="UTF-8" standalone="no"?>
<!DOCTYPE svg PUBLIC "-//W3C//DTD SVG 1.1//EN"
 "http://www.w3.org/Graphics/SVG/1.1/DTD/svg11.dtd">
<!-- Generated by graphviz version 2.40.1 (20161225.0304)
 -->
<!-- Title: dependencies Pages: 1 -->
<svg width="2173pt" height="211pt"
 viewBox="0.00 0.00 2173.00 211.00" xmlns="http://www.w3.org/2000/svg" xmlns:xlink="http://www.w3.org/1999/xlink">
<g id="graph0" class="graph" transform="scale(1 1) rotate(0) translate(4 207)">
<title>dependencies</title>
<polygon fill="#ffffff" stroke="transparent" points="-4,4 -4,-207 2169,-207 2169,4 -4,4"/>
<text text-anchor="start" x="1061.5091" y="-42.4" font-family="sans-serif" font-weight="bold" font-size="14.00" fill="#000000">Legend</text>
<polygon fill="#ffffb3" stroke="transparent" points="848.5,-10 848.5,-30 868.5,-30 868.5,-10 848.5,-10"/>
<text text-anchor="start" x="872.129" y="-15.4" font-family="sans-serif" font-size="14.00" fill="#000000"> &#160;Declarations</text>
<polygon fill="#8dd3c7" stroke="transparent" points="961.5,-10 961.5,-30 981.5,-30 981.5,-10 961.5,-10"/>
<text text-anchor="start" x="985.2251" y="-15.4" font-family="sans-serif" font-size="14.00" fill="#000000"> &#160;Module</text>
<polygon fill="#80b1d3" stroke="transparent" points="1047.5,-10 1047.5,-30 1067.5,-30 1067.5,-10 1047.5,-10"/>
<text text-anchor="start" x="1071.2812" y="-15.4" font-family="sans-serif" font-size="14.00" fill="#000000"> &#160;Bootstrap</text>
<polygon fill="#fdb462" stroke="transparent" points="1144.5,-10 1144.5,-30 1164.5,-30 1164.5,-10 1144.5,-10"/>
<text text-anchor="start" x="1168.1732" y="-15.4" font-family="sans-serif" font-size="14.00" fill="#000000"> &#160;Providers</text>
<polygon fill="#fb8072" stroke="transparent" points="1240.5,-10 1240.5,-30 1260.5,-30 1260.5,-10 1240.5,-10"/>
<text text-anchor="start" x="1264.2258" y="-15.4" font-family="sans-serif" font-size="14.00" fill="#000000"> &#160;Exports</text>
<g id="clust1" class="cluster">
<title>cluster_AdminModule</title>
<polygon fill="none" stroke="#000000" stroke-dasharray="1,5" points="8,-70 8,-195 2157,-195 2157,-70 8,-70"/>
</g>
<g id="clust2" class="cluster">
<title>cluster_AdminModule_declarations</title>
<polygon fill="none" stroke="#000000" points="300,-78 300,-130 2149,-130 2149,-78 300,-78"/>
</g>
<g id="clust13" class="cluster">
<title>cluster_AdminModule_imports</title>
<polygon fill="none" stroke="#000000" points="16,-78 16,-130 292,-130 292,-78 16,-78"/>
</g>
<!-- AdminComponent -->
<g id="node1" class="node">
<title>AdminComponent</title>
<polygon fill="#ffffb3" stroke="#000000" points="2141.2204,-122 2020.7796,-122 2020.7796,-86 2141.2204,-86 2141.2204,-122"/>
<text text-anchor="middle" x="2081" y="-99.8" font-family="Times,serif" font-size="14.00" fill="#000000">AdminComponent</text>
</g>
<!-- AdminModule -->
<g id="node11" class="node">
<title>AdminModule</title>
<polygon fill="#8dd3c7" stroke="#000000" points="1153.4386,-187 1150.4386,-191 1129.4386,-191 1126.4386,-187 1054.5614,-187 1054.5614,-151 1153.4386,-151 1153.4386,-187"/>
<text text-anchor="middle" x="1104" y="-164.8" font-family="Times,serif" font-size="14.00" fill="#000000">AdminModule</text>
</g>
<!-- AdminComponent&#45;&gt;AdminModule -->
<g id="edge1" class="edge">
<title>AdminComponent&#45;&gt;AdminModule</title>
<path fill="none" stroke="#000000" d="M2081,-122.0908C2081,-145.1328 2081,-182 2081,-182 2081,-182 1163.4554,-182 1163.4554,-182"/>
<polygon fill="#000000" stroke="#000000" points="1163.4555,-178.5001 1153.4554,-182 1163.4554,-185.5001 1163.4555,-178.5001"/>
</g>
<!-- AdminCouponsComponent -->
<g id="node2" class="node">
<title>AdminCouponsComponent</title>
<polygon fill="#ffffb3" stroke="#000000" points="2003.0014,-122 1832.9986,-122 1832.9986,-86 2003.0014,-86 2003.0014,-122"/>
<text text-anchor="middle" x="1918" y="-99.8" font-family="Times,serif" font-size="14.00" fill="#000000">AdminCouponsComponent</text>
</g>
<!-- AdminCouponsComponent&#45;&gt;AdminModule -->
<g id="edge2" class="edge">
<title>AdminCouponsComponent&#45;&gt;AdminModule</title>
<path fill="none" stroke="#000000" d="M1918,-122.2843C1918,-143.3211 1918,-175 1918,-175 1918,-175 1163.3897,-175 1163.3897,-175"/>
<polygon fill="#000000" stroke="#000000" points="1163.3897,-171.5001 1153.3897,-175 1163.3897,-178.5001 1163.3897,-171.5001"/>
</g>
<!-- AdminHomeComponent -->
<g id="node3" class="node">
<title>AdminHomeComponent</title>
<polygon fill="#ffffb3" stroke="#000000" points="1815.4326,-122 1660.5674,-122 1660.5674,-86 1815.4326,-86 1815.4326,-122"/>
<text text-anchor="middle" x="1738" y="-99.8" font-family="Times,serif" font-size="14.00" fill="#000000">AdminHomeComponent</text>
</g>
<!-- AdminHomeComponent&#45;&gt;AdminModule -->
<g id="edge3" class="edge">
<title>AdminHomeComponent&#45;&gt;AdminModule</title>
<path fill="none" stroke="#000000" d="M1738,-122.1061C1738,-141.3391 1738,-169 1738,-169 1738,-169 1163.2214,-169 1163.2214,-169"/>
<polygon fill="#000000" stroke="#000000" points="1163.2214,-165.5001 1153.2214,-169 1163.2213,-172.5001 1163.2214,-165.5001"/>
</g>
<!-- AdminInstituteComponent -->
<g id="node4" class="node">
<title>AdminInstituteComponent</title>
<polygon fill="#ffffb3" stroke="#000000" points="1643.1024,-122 1476.8976,-122 1476.8976,-86 1643.1024,-86 1643.1024,-122"/>
<text text-anchor="middle" x="1560" y="-99.8" font-family="Times,serif" font-size="14.00" fill="#000000">AdminInstituteComponent</text>
</g>
<!-- AdminInstituteComponent&#45;&gt;AdminModule -->
<g id="edge4" class="edge">
<title>AdminInstituteComponent&#45;&gt;AdminModule</title>
<path fill="none" stroke="#000000" d="M1560,-122.0225C1560,-139.3734 1560,-163 1560,-163 1560,-163 1163.2332,-163 1163.2332,-163"/>
<polygon fill="#000000" stroke="#000000" points="1163.2333,-159.5001 1153.2332,-163 1163.2332,-166.5001 1163.2333,-159.5001"/>
</g>
<!-- AdminInstitutesComponent -->
<g id="node5" class="node">
<title>AdminInstitutesComponent</title>
<polygon fill="#ffffb3" stroke="#000000" points="1458.5476,-122 1287.4524,-122 1287.4524,-86 1458.5476,-86 1458.5476,-122"/>
<text text-anchor="middle" x="1373" y="-99.8" font-family="Times,serif" font-size="14.00" fill="#000000">AdminInstitutesComponent</text>
</g>
<!-- AdminInstitutesComponent&#45;&gt;AdminModule -->
<g id="edge5" class="edge">
<title>AdminInstitutesComponent&#45;&gt;AdminModule</title>
<path fill="none" stroke="#000000" d="M1373,-122.2396C1373,-137.5706 1373,-157 1373,-157 1373,-157 1163.3387,-157 1163.3387,-157"/>
<polygon fill="#000000" stroke="#000000" points="1163.3388,-153.5001 1153.3387,-157 1163.3387,-160.5001 1163.3388,-153.5001"/>
</g>
<!-- AdminPlansComponent -->
<g id="node6" class="node">
<title>AdminPlansComponent</title>
<polygon fill="#ffffb3" stroke="#000000" points="1269.0533,-122 1118.9467,-122 1118.9467,-86 1269.0533,-86 1269.0533,-122"/>
<text text-anchor="middle" x="1194" y="-99.8" font-family="Times,serif" font-size="14.00" fill="#000000">AdminPlansComponent</text>
</g>
<!-- AdminPlansComponent&#45;&gt;AdminModule -->
<g id="edge6" class="edge">
<title>AdminPlansComponent&#45;&gt;AdminModule</title>
<path fill="none" stroke="#000000" d="M1135.9713,-122.1061C1135.9713,-122.1061 1135.9713,-140.991 1135.9713,-140.991"/>
<polygon fill="#000000" stroke="#000000" points="1132.4713,-140.9909 1135.9713,-150.991 1139.4713,-140.991 1132.4713,-140.9909"/>
</g>
<!-- AdminSavePlanComponent -->
<g id="node7" class="node">
<title>AdminSavePlanComponent</title>
<polygon fill="#ffffb3" stroke="#000000" points="1101.3201,-122 928.6799,-122 928.6799,-86 1101.3201,-86 1101.3201,-122"/>
<text text-anchor="middle" x="1015" y="-99.8" font-family="Times,serif" font-size="14.00" fill="#000000">AdminSavePlanComponent</text>
</g>
<!-- AdminSavePlanComponent&#45;&gt;AdminModule -->
<g id="edge7" class="edge">
<title>AdminSavePlanComponent&#45;&gt;AdminModule</title>
<path fill="none" stroke="#000000" d="M1077.9706,-122.1061C1077.9706,-122.1061 1077.9706,-140.991 1077.9706,-140.991"/>
<polygon fill="#000000" stroke="#000000" points="1074.4706,-140.9909 1077.9706,-150.991 1081.4706,-140.991 1074.4706,-140.9909"/>
</g>
<!-- AdminSmsPackComponent -->
<g id="node8" class="node">
<title>AdminSmsPackComponent</title>
<polygon fill="#ffffb3" stroke="#000000" points="910.5504,-122 739.4496,-122 739.4496,-86 910.5504,-86 910.5504,-122"/>
<text text-anchor="middle" x="825" y="-99.8" font-family="Times,serif" font-size="14.00" fill="#000000">AdminSmsPackComponent</text>
</g>
<!-- AdminSmsPackComponent&#45;&gt;AdminModule -->
<g id="edge8" class="edge">
<title>AdminSmsPackComponent&#45;&gt;AdminModule</title>
<path fill="none" stroke="#000000" d="M825,-122.2396C825,-137.5706 825,-157 825,-157 825,-157 1044.7626,-157 1044.7626,-157"/>
<polygon fill="#000000" stroke="#000000" points="1044.7627,-160.5001 1054.7626,-157 1044.7626,-153.5001 1044.7627,-160.5001"/>
</g>
<!-- SaveAdminCouponsComponent -->
<g id="node9" class="node">
<title>SaveAdminCouponsComponent</title>
<polygon fill="#ffffb3" stroke="#000000" points="721.7133,-122 524.2867,-122 524.2867,-86 721.7133,-86 721.7133,-122"/>
<text text-anchor="middle" x="623" y="-99.8" font-family="Times,serif" font-size="14.00" fill="#000000">SaveAdminCouponsComponent</text>
</g>
<!-- SaveAdminCouponsComponent&#45;&gt;AdminModule -->
<g id="edge9" class="edge">
<title>SaveAdminCouponsComponent&#45;&gt;AdminModule</title>
<path fill="none" stroke="#000000" d="M623,-122.0225C623,-139.3734 623,-163 623,-163 623,-163 1044.3362,-163 1044.3362,-163"/>
<polygon fill="#000000" stroke="#000000" points="1044.3363,-166.5001 1054.3362,-163 1044.3362,-159.5001 1044.3363,-166.5001"/>
</g>
<!-- SaveAdminSmsPackComponent -->
<g id="node10" class="node">
<title>SaveAdminSmsPackComponent</title>
<polygon fill="#ffffb3" stroke="#000000" points="506.2617,-122 307.7383,-122 307.7383,-86 506.2617,-86 506.2617,-122"/>
<text text-anchor="middle" x="407" y="-99.8" font-family="Times,serif" font-size="14.00" fill="#000000">SaveAdminSmsPackComponent</text>
</g>
<!-- SaveAdminSmsPackComponent&#45;&gt;AdminModule -->
<g id="edge10" class="edge">
<title>SaveAdminSmsPackComponent&#45;&gt;AdminModule</title>
<path fill="none" stroke="#000000" d="M407,-122.1061C407,-141.3391 407,-169 407,-169 407,-169 1044.7106,-169 1044.7106,-169"/>
<polygon fill="#000000" stroke="#000000" points="1044.7106,-172.5001 1054.7106,-169 1044.7106,-165.5001 1044.7106,-172.5001"/>
</g>
<!-- AdminRoutingModule -->
<g id="node12" class="node">
<title>AdminRoutingModule</title>
<polygon fill="#8dd3c7" stroke="#000000" points="283.5561,-122 280.5561,-126 259.5561,-126 256.5561,-122 140.4439,-122 140.4439,-86 283.5561,-86 283.5561,-122"/>
<text text-anchor="middle" x="212" y="-99.8" font-family="Times,serif" font-size="14.00" fill="#000000">AdminRoutingModule</text>
</g>
<!-- AdminRoutingModule&#45;&gt;AdminModule -->
<g id="edge11" class="edge">
<title>AdminRoutingModule&#45;&gt;AdminModule</title>
<path fill="none" stroke="#000000" d="M212,-122.2843C212,-143.3211 212,-175 212,-175 212,-175 1044.7716,-175 1044.7716,-175"/>
<polygon fill="#000000" stroke="#000000" points="1044.7717,-178.5001 1054.7716,-175 1044.7716,-171.5001 1044.7717,-178.5001"/>
</g>
<!-- ThemeModule -->
<g id="node13" class="node">
<title>ThemeModule</title>
<polygon fill="#8dd3c7" stroke="#000000" points="122.4231,-122 119.4231,-126 98.4231,-126 95.4231,-122 23.5769,-122 23.5769,-86 122.4231,-86 122.4231,-122"/>
<text text-anchor="middle" x="73" y="-99.8" font-family="Times,serif" font-size="14.00" fill="#000000">ThemeModule</text>
</g>
<!-- ThemeModule&#45;&gt;AdminModule -->
<g id="edge12" class="edge">
<title>ThemeModule&#45;&gt;AdminModule</title>
<path fill="none" stroke="#000000" d="M73,-122.0908C73,-145.1328 73,-182 73,-182 73,-182 1044.6201,-182 1044.6201,-182"/>
<polygon fill="#000000" stroke="#000000" points="1044.6201,-185.5001 1054.6201,-182 1044.62,-178.5001 1044.6201,-185.5001"/>
</g>
</g>
</svg>
