<?xml version="1.0" encoding="UTF-8" standalone="no"?>
<!DOCTYPE svg PUBLIC "-//W3C//DTD SVG 1.1//EN"
 "http://www.w3.org/Graphics/SVG/1.1/DTD/svg11.dtd">
<!-- Generated by graphviz version 2.40.1 (20161225.0304)
 -->
<!-- Title: dependencies Pages: 1 -->
<svg width="1512pt" height="284pt"
 viewBox="0.00 0.00 1512.00 284.00" xmlns="http://www.w3.org/2000/svg" xmlns:xlink="http://www.w3.org/1999/xlink">
<g id="graph0" class="graph" transform="scale(1 1) rotate(0) translate(4 280)">
<title>dependencies</title>
<polygon fill="#ffffff" stroke="transparent" points="-4,4 -4,-280 1508,-280 1508,4 -4,4"/>
<text text-anchor="start" x="731.0091" y="-42.4" font-family="sans-serif" font-weight="bold" font-size="14.00" fill="#000000">Legend</text>
<polygon fill="#ffffb3" stroke="transparent" points="518,-10 518,-30 538,-30 538,-10 518,-10"/>
<text text-anchor="start" x="541.629" y="-15.4" font-family="sans-serif" font-size="14.00" fill="#000000"> &#160;Declarations</text>
<polygon fill="#8dd3c7" stroke="transparent" points="631,-10 631,-30 651,-30 651,-10 631,-10"/>
<text text-anchor="start" x="654.7251" y="-15.4" font-family="sans-serif" font-size="14.00" fill="#000000"> &#160;Module</text>
<polygon fill="#80b1d3" stroke="transparent" points="717,-10 717,-30 737,-30 737,-10 717,-10"/>
<text text-anchor="start" x="740.7812" y="-15.4" font-family="sans-serif" font-size="14.00" fill="#000000"> &#160;Bootstrap</text>
<polygon fill="#fdb462" stroke="transparent" points="814,-10 814,-30 834,-30 834,-10 814,-10"/>
<text text-anchor="start" x="837.6732" y="-15.4" font-family="sans-serif" font-size="14.00" fill="#000000"> &#160;Providers</text>
<polygon fill="#fb8072" stroke="transparent" points="910,-10 910,-30 930,-30 930,-10 910,-10"/>
<text text-anchor="start" x="933.7258" y="-15.4" font-family="sans-serif" font-size="14.00" fill="#000000"> &#160;Exports</text>
<g id="clust1" class="cluster">
<title>cluster_AppModule</title>
<polygon fill="none" stroke="#000000" stroke-dasharray="1,5" points="8,-70 8,-268 1496,-268 1496,-70 8,-70"/>
</g>
<g id="clust2" class="cluster">
<title>cluster_AppModule_declarations</title>
<polygon fill="none" stroke="#000000" points="560,-78 560,-130 1488,-130 1488,-78 560,-78"/>
</g>
<g id="clust9" class="cluster">
<title>cluster_AppModule_imports</title>
<polygon fill="none" stroke="#000000" points="186,-78 186,-130 552,-130 552,-78 186,-78"/>
</g>
<g id="clust11" class="cluster">
<title>cluster_AppModule_bootstrap</title>
<polygon fill="none" stroke="#000000" points="697,-208 697,-260 821,-260 821,-208 697,-208"/>
</g>
<g id="clust12" class="cluster">
<title>cluster_AppModule_providers</title>
<polygon fill="none" stroke="#000000" points="16,-78 16,-130 178,-130 178,-78 16,-78"/>
</g>
<!-- AppComponent -->
<g id="node1" class="node">
<title>AppComponent</title>
<polygon fill="#ffffb3" stroke="#000000" points="1479.9399,-122 1374.0601,-122 1374.0601,-86 1479.9399,-86 1479.9399,-122"/>
<text text-anchor="middle" x="1427" y="-99.8" font-family="Times,serif" font-size="14.00" fill="#000000">AppComponent</text>
</g>
<!-- AppModule -->
<g id="node7" class="node">
<title>AppModule</title>
<polygon fill="#8dd3c7" stroke="#000000" points="800.6571,-187 797.6571,-191 776.6571,-191 773.6571,-187 717.3429,-187 717.3429,-151 800.6571,-151 800.6571,-187"/>
<text text-anchor="middle" x="759" y="-164.8" font-family="Times,serif" font-size="14.00" fill="#000000">AppModule</text>
</g>
<!-- AppComponent&#45;&gt;AppModule -->
<g id="edge1" class="edge">
<title>AppComponent&#45;&gt;AppModule</title>
<path fill="none" stroke="#000000" d="M1427,-122.0109C1427,-144.4852 1427,-180 1427,-180 1427,-180 810.7864,-180 810.7864,-180"/>
<polygon fill="#000000" stroke="#000000" points="810.7864,-176.5001 800.7864,-180 810.7864,-183.5001 810.7864,-176.5001"/>
</g>
<!-- ForgotPasswordComponent -->
<g id="node2" class="node">
<title>ForgotPasswordComponent</title>
<polygon fill="#ffffb3" stroke="#000000" points="1356.3201,-122 1183.6799,-122 1183.6799,-86 1356.3201,-86 1356.3201,-122"/>
<text text-anchor="middle" x="1270" y="-99.8" font-family="Times,serif" font-size="14.00" fill="#000000">ForgotPasswordComponent</text>
</g>
<!-- ForgotPasswordComponent&#45;&gt;AppModule -->
<g id="edge2" class="edge">
<title>ForgotPasswordComponent&#45;&gt;AppModule</title>
<path fill="none" stroke="#000000" d="M1270,-122.1289C1270,-142.5724 1270,-173 1270,-173 1270,-173 810.8173,-173 810.8173,-173"/>
<polygon fill="#000000" stroke="#000000" points="810.8173,-169.5001 800.8173,-173 810.8172,-176.5001 810.8173,-169.5001"/>
</g>
<!-- LoginComponent -->
<g id="node3" class="node">
<title>LoginComponent</title>
<polygon fill="#ffffb3" stroke="#000000" points="1165.2758,-122 1050.7242,-122 1050.7242,-86 1165.2758,-86 1165.2758,-122"/>
<text text-anchor="middle" x="1108" y="-99.8" font-family="Times,serif" font-size="14.00" fill="#000000">LoginComponent</text>
</g>
<!-- LoginComponent&#45;&gt;AppModule -->
<g id="edge3" class="edge">
<title>LoginComponent&#45;&gt;AppModule</title>
<path fill="none" stroke="#000000" d="M1108,-122.2667C1108,-140.5552 1108,-166 1108,-166 1108,-166 810.7509,-166 810.7509,-166"/>
<polygon fill="#000000" stroke="#000000" points="810.7509,-162.5001 800.7509,-166 810.7509,-169.5001 810.7509,-162.5001"/>
</g>
<!-- OtpComponent -->
<g id="node4" class="node">
<title>OtpComponent</title>
<polygon fill="#ffffb3" stroke="#000000" points="1032.3301,-122 929.6699,-122 929.6699,-86 1032.3301,-86 1032.3301,-122"/>
<text text-anchor="middle" x="981" y="-99.8" font-family="Times,serif" font-size="14.00" fill="#000000">OtpComponent</text>
</g>
<!-- OtpComponent&#45;&gt;AppModule -->
<g id="edge4" class="edge">
<title>OtpComponent&#45;&gt;AppModule</title>
<path fill="none" stroke="#000000" d="M981,-122.0091C981,-138.0494 981,-159 981,-159 981,-159 810.7565,-159 810.7565,-159"/>
<polygon fill="#000000" stroke="#000000" points="810.7565,-155.5001 800.7565,-159 810.7565,-162.5001 810.7565,-155.5001"/>
</g>
<!-- SignUpComponent -->
<g id="node5" class="node">
<title>SignUpComponent</title>
<polygon fill="#ffffb3" stroke="#000000" points="912.1123,-122 787.8877,-122 787.8877,-86 912.1123,-86 912.1123,-122"/>
<text text-anchor="middle" x="850" y="-99.8" font-family="Times,serif" font-size="14.00" fill="#000000">SignUpComponent</text>
</g>
<!-- SignUpComponent&#45;&gt;AppModule -->
<g id="edge5" class="edge">
<title>SignUpComponent&#45;&gt;AppModule</title>
<path fill="none" stroke="#000000" d="M794.3861,-122.1061C794.3861,-122.1061 794.3861,-140.991 794.3861,-140.991"/>
<polygon fill="#000000" stroke="#000000" points="790.8861,-140.9909 794.3861,-150.991 797.8861,-140.991 790.8861,-140.9909"/>
</g>
<!-- TermsAndConditionsComponent -->
<g id="node6" class="node">
<title>TermsAndConditionsComponent</title>
<polygon fill="#ffffb3" stroke="#000000" points="770.1553,-122 567.8447,-122 567.8447,-86 770.1553,-86 770.1553,-122"/>
<text text-anchor="middle" x="669" y="-99.8" font-family="Times,serif" font-size="14.00" fill="#000000">TermsAndConditionsComponent</text>
</g>
<!-- TermsAndConditionsComponent&#45;&gt;AppModule -->
<g id="edge6" class="edge">
<title>TermsAndConditionsComponent&#45;&gt;AppModule</title>
<path fill="none" stroke="#000000" d="M743.7497,-122.1061C743.7497,-122.1061 743.7497,-140.991 743.7497,-140.991"/>
<polygon fill="#000000" stroke="#000000" points="740.2497,-140.9909 743.7497,-150.991 747.2497,-140.991 740.2497,-140.9909"/>
</g>
<!-- AppComponent  -->
<g id="node11" class="node">
<title>AppComponent </title>
<polygon fill="#80b1d3" stroke="#000000" points="813.439,-252 704.561,-252 704.561,-216 813.439,-216 813.439,-252"/>
<text text-anchor="middle" x="759" y="-229.8" font-family="Times,serif" font-size="14.00" fill="#000000">AppComponent </text>
</g>
<!-- AppModule&#45;&gt;AppComponent  -->
<g id="edge10" class="edge">
<title>AppModule&#45;&gt;AppComponent </title>
<path fill="none" stroke="#000000" stroke-dasharray="1,5" d="M759,-187.1061C759,-187.1061 759,-205.991 759,-205.991"/>
<polygon fill="#000000" stroke="#000000" points="755.5001,-205.9909 759,-215.991 762.5001,-205.991 755.5001,-205.9909"/>
</g>
<!-- AppRoutingModule -->
<g id="node8" class="node">
<title>AppRoutingModule</title>
<polygon fill="#8dd3c7" stroke="#000000" points="544.2744,-122 541.2744,-126 520.2744,-126 517.2744,-122 415.7256,-122 415.7256,-86 544.2744,-86 544.2744,-122"/>
<text text-anchor="middle" x="480" y="-99.8" font-family="Times,serif" font-size="14.00" fill="#000000">AppRoutingModule</text>
</g>
<!-- AppRoutingModule&#45;&gt;AppModule -->
<g id="edge7" class="edge">
<title>AppRoutingModule&#45;&gt;AppModule</title>
<path fill="none" stroke="#000000" d="M480,-122.0091C480,-138.0494 480,-159 480,-159 480,-159 707.2309,-159 707.2309,-159"/>
<polygon fill="#000000" stroke="#000000" points="707.2309,-162.5001 717.2309,-159 707.2308,-155.5001 707.2309,-162.5001"/>
</g>
<!-- CoreModule -->
<g id="node9" class="node">
<title>CoreModule</title>
<polygon fill="#8dd3c7" stroke="#000000" points="397.2619,-122 394.2619,-126 373.2619,-126 370.2619,-122 310.7381,-122 310.7381,-86 397.2619,-86 397.2619,-122"/>
<text text-anchor="middle" x="354" y="-99.8" font-family="Times,serif" font-size="14.00" fill="#000000">CoreModule</text>
</g>
<!-- CoreModule&#45;&gt;AppModule -->
<g id="edge8" class="edge">
<title>CoreModule&#45;&gt;AppModule</title>
<path fill="none" stroke="#000000" d="M354,-122.2667C354,-140.5552 354,-166 354,-166 354,-166 707.1833,-166 707.1833,-166"/>
<polygon fill="#000000" stroke="#000000" points="707.1833,-169.5001 717.1833,-166 707.1833,-162.5001 707.1833,-169.5001"/>
</g>
<!-- ThemeModule -->
<g id="node10" class="node">
<title>ThemeModule</title>
<polygon fill="#8dd3c7" stroke="#000000" points="292.4231,-122 289.4231,-126 268.4231,-126 265.4231,-122 193.5769,-122 193.5769,-86 292.4231,-86 292.4231,-122"/>
<text text-anchor="middle" x="243" y="-99.8" font-family="Times,serif" font-size="14.00" fill="#000000">ThemeModule</text>
</g>
<!-- ThemeModule&#45;&gt;AppModule -->
<g id="edge9" class="edge">
<title>ThemeModule&#45;&gt;AppModule</title>
<path fill="none" stroke="#000000" d="M243,-122.1289C243,-142.5724 243,-173 243,-173 243,-173 707.2106,-173 707.2106,-173"/>
<polygon fill="#000000" stroke="#000000" points="707.2107,-176.5001 717.2106,-173 707.2106,-169.5001 707.2107,-176.5001"/>
</g>
<!-- AuthInterceptor -->
<g id="node12" class="node">
<title>AuthInterceptor</title>
<ellipse fill="#fdb462" stroke="#000000" cx="97" cy="-104" rx="72.9121" ry="18"/>
<text text-anchor="middle" x="97" y="-99.8" font-family="Times,serif" font-size="14.00" fill="#000000">AuthInterceptor</text>
</g>
<!-- AuthInterceptor&#45;&gt;AppModule -->
<g id="edge11" class="edge">
<title>AuthInterceptor&#45;&gt;AppModule</title>
<path fill="none" stroke="#000000" d="M97,-122.0109C97,-144.4852 97,-180 97,-180 97,-180 707.3382,-180 707.3382,-180"/>
<polygon fill="#000000" stroke="#000000" points="707.3382,-183.5001 717.3382,-180 707.3381,-176.5001 707.3382,-183.5001"/>
</g>
</g>
</svg>
