<?xml version="1.0" encoding="UTF-8" standalone="no"?>
<!DOCTYPE svg PUBLIC "-//W3C//DTD SVG 1.1//EN"
 "http://www.w3.org/Graphics/SVG/1.1/DTD/svg11.dtd">
<!-- Generated by graphviz version 2.40.1 (20161225.0304)
 -->
<!-- Title: dependencies Pages: 1 -->
<svg width="3663pt" height="211pt"
 viewBox="0.00 0.00 3663.00 211.00" xmlns="http://www.w3.org/2000/svg" xmlns:xlink="http://www.w3.org/1999/xlink">
<g id="graph0" class="graph" transform="scale(1 1) rotate(0) translate(4 207)">
<title>dependencies</title>
<polygon fill="#ffffff" stroke="transparent" points="-4,4 -4,-207 3659,-207 3659,4 -4,4"/>
<text text-anchor="start" x="1806.5091" y="-42.4" font-family="sans-serif" font-weight="bold" font-size="14.00" fill="#000000">Legend</text>
<polygon fill="#ffffb3" stroke="transparent" points="1593.5,-10 1593.5,-30 1613.5,-30 1613.5,-10 1593.5,-10"/>
<text text-anchor="start" x="1617.129" y="-15.4" font-family="sans-serif" font-size="14.00" fill="#000000"> &#160;Declarations</text>
<polygon fill="#8dd3c7" stroke="transparent" points="1706.5,-10 1706.5,-30 1726.5,-30 1726.5,-10 1706.5,-10"/>
<text text-anchor="start" x="1730.2251" y="-15.4" font-family="sans-serif" font-size="14.00" fill="#000000"> &#160;Module</text>
<polygon fill="#80b1d3" stroke="transparent" points="1792.5,-10 1792.5,-30 1812.5,-30 1812.5,-10 1792.5,-10"/>
<text text-anchor="start" x="1816.2812" y="-15.4" font-family="sans-serif" font-size="14.00" fill="#000000"> &#160;Bootstrap</text>
<polygon fill="#fdb462" stroke="transparent" points="1889.5,-10 1889.5,-30 1909.5,-30 1909.5,-10 1889.5,-10"/>
<text text-anchor="start" x="1913.1732" y="-15.4" font-family="sans-serif" font-size="14.00" fill="#000000"> &#160;Providers</text>
<polygon fill="#fb8072" stroke="transparent" points="1985.5,-10 1985.5,-30 2005.5,-30 2005.5,-10 1985.5,-10"/>
<text text-anchor="start" x="2009.2258" y="-15.4" font-family="sans-serif" font-size="14.00" fill="#000000"> &#160;Exports</text>
<g id="clust1" class="cluster">
<title>cluster_InstituteModule</title>
<polygon fill="none" stroke="#000000" stroke-dasharray="1,5" points="8,-70 8,-195 3647,-195 3647,-70 8,-70"/>
</g>
<g id="clust2" class="cluster">
<title>cluster_InstituteModule_declarations</title>
<polygon fill="none" stroke="#000000" points="297,-78 297,-130 3639,-130 3639,-78 297,-78"/>
</g>
<g id="clust22" class="cluster">
<title>cluster_InstituteModule_imports</title>
<polygon fill="none" stroke="#000000" points="16,-78 16,-130 289,-130 289,-78 16,-78"/>
</g>
<!-- AddAttendanceComponent -->
<g id="node1" class="node">
<title>AddAttendanceComponent</title>
<polygon fill="#ffffb3" stroke="#000000" points="3630.6853,-122 3461.3147,-122 3461.3147,-86 3630.6853,-86 3630.6853,-122"/>
<text text-anchor="middle" x="3546" y="-99.8" font-family="Times,serif" font-size="14.00" fill="#000000">AddAttendanceComponent</text>
</g>
<!-- InstituteModule -->
<g id="node20" class="node">
<title>InstituteModule</title>
<polygon fill="#8dd3c7" stroke="#000000" points="1885.9329,-187 1882.9329,-191 1861.9329,-191 1858.9329,-187 1780.0671,-187 1780.0671,-151 1885.9329,-151 1885.9329,-187"/>
<text text-anchor="middle" x="1833" y="-164.8" font-family="Times,serif" font-size="14.00" fill="#000000">InstituteModule</text>
</g>
<!-- AddAttendanceComponent&#45;&gt;InstituteModule -->
<g id="edge1" class="edge">
<title>AddAttendanceComponent&#45;&gt;InstituteModule</title>
<path fill="none" stroke="#000000" d="M3546,-122.1532C3546,-145.7566 3546,-184 3546,-184 3546,-184 1896.1451,-184 1896.1451,-184"/>
<polygon fill="#000000" stroke="#000000" points="1896.1451,-180.5001 1886.1451,-184 1896.1451,-187.5001 1896.1451,-180.5001"/>
</g>
<!-- AddInstituteComponent -->
<g id="node2" class="node">
<title>AddInstituteComponent</title>
<polygon fill="#ffffb3" stroke="#000000" points="3443.8215,-122 3292.1785,-122 3292.1785,-86 3443.8215,-86 3443.8215,-122"/>
<text text-anchor="middle" x="3368" y="-99.8" font-family="Times,serif" font-size="14.00" fill="#000000">AddInstituteComponent</text>
</g>
<!-- AddInstituteComponent&#45;&gt;InstituteModule -->
<g id="edge2" class="edge">
<title>AddInstituteComponent&#45;&gt;InstituteModule</title>
<path fill="none" stroke="#000000" d="M3368,-122.2479C3368,-145.0179 3368,-181 3368,-181 3368,-181 1895.8382,-181 1895.8382,-181"/>
<polygon fill="#000000" stroke="#000000" points="1895.8382,-177.5001 1885.8382,-181 1895.8381,-184.5001 1895.8382,-177.5001"/>
</g>
<!-- AddLeadComponent -->
<g id="node3" class="node">
<title>AddLeadComponent</title>
<polygon fill="#ffffb3" stroke="#000000" points="3274.9215,-122 3141.0785,-122 3141.0785,-86 3274.9215,-86 3274.9215,-122"/>
<text text-anchor="middle" x="3208" y="-99.8" font-family="Times,serif" font-size="14.00" fill="#000000">AddLeadComponent</text>
</g>
<!-- AddLeadComponent&#45;&gt;InstituteModule -->
<g id="edge3" class="edge">
<title>AddLeadComponent&#45;&gt;InstituteModule</title>
<path fill="none" stroke="#000000" d="M3208,-122.2921C3208,-144.2057 3208,-178 3208,-178 3208,-178 1896.0591,-178 1896.0591,-178"/>
<polygon fill="#000000" stroke="#000000" points="1896.0592,-174.5001 1886.0591,-178 1896.0591,-181.5001 1896.0592,-174.5001"/>
</g>
<!-- AddScheduleComponent -->
<g id="node4" class="node">
<title>AddScheduleComponent</title>
<polygon fill="#ffffb3" stroke="#000000" points="3123.2562,-122 2966.7438,-122 2966.7438,-86 3123.2562,-86 3123.2562,-122"/>
<text text-anchor="middle" x="3045" y="-99.8" font-family="Times,serif" font-size="14.00" fill="#000000">AddScheduleComponent</text>
</g>
<!-- AddScheduleComponent&#45;&gt;InstituteModule -->
<g id="edge4" class="edge">
<title>AddScheduleComponent&#45;&gt;InstituteModule</title>
<path fill="none" stroke="#000000" d="M3045,-122.0267C3045,-142.7672 3045,-174 3045,-174 3045,-174 1895.8575,-174 1895.8575,-174"/>
<polygon fill="#000000" stroke="#000000" points="1895.8575,-170.5001 1885.8575,-174 1895.8574,-177.5001 1895.8575,-170.5001"/>
</g>
<!-- AddStudentsComponent -->
<g id="node5" class="node">
<title>AddStudentsComponent</title>
<polygon fill="#ffffb3" stroke="#000000" points="2948.6624,-122 2795.3376,-122 2795.3376,-86 2948.6624,-86 2948.6624,-122"/>
<text text-anchor="middle" x="2872" y="-99.8" font-family="Times,serif" font-size="14.00" fill="#000000">AddStudentsComponent</text>
</g>
<!-- AddStudentsComponent&#45;&gt;InstituteModule -->
<g id="edge5" class="edge">
<title>AddStudentsComponent&#45;&gt;InstituteModule</title>
<path fill="none" stroke="#000000" d="M2872,-122.308C2872,-142.1455 2872,-171 2872,-171 2872,-171 1895.9526,-171 1895.9526,-171"/>
<polygon fill="#000000" stroke="#000000" points="1895.9526,-167.5001 1885.9526,-171 1895.9525,-174.5001 1895.9526,-167.5001"/>
</g>
<!-- AttandanceComponent -->
<g id="node6" class="node">
<title>AttandanceComponent</title>
<polygon fill="#ffffb3" stroke="#000000" points="2777.5786,-122 2632.4214,-122 2632.4214,-86 2777.5786,-86 2777.5786,-122"/>
<text text-anchor="middle" x="2705" y="-99.8" font-family="Times,serif" font-size="14.00" fill="#000000">AttandanceComponent</text>
</g>
<!-- AttandanceComponent&#45;&gt;InstituteModule -->
<g id="edge6" class="edge">
<title>AttandanceComponent&#45;&gt;InstituteModule</title>
<path fill="none" stroke="#000000" d="M2705,-122.1686C2705,-141.0898 2705,-168 2705,-168 2705,-168 1895.9089,-168 1895.9089,-168"/>
<polygon fill="#000000" stroke="#000000" points="1895.9089,-164.5001 1885.9089,-168 1895.9088,-171.5001 1895.9089,-164.5001"/>
</g>
<!-- InstituteComponent -->
<g id="node7" class="node">
<title>InstituteComponent</title>
<polygon fill="#ffffb3" stroke="#000000" points="2614.7148,-122 2487.2852,-122 2487.2852,-86 2614.7148,-86 2614.7148,-122"/>
<text text-anchor="middle" x="2551" y="-99.8" font-family="Times,serif" font-size="14.00" fill="#000000">InstituteComponent</text>
</g>
<!-- InstituteComponent&#45;&gt;InstituteModule -->
<g id="edge7" class="edge">
<title>InstituteComponent&#45;&gt;InstituteModule</title>
<path fill="none" stroke="#000000" d="M2551,-122.302C2551,-140.2699 2551,-165 2551,-165 2551,-165 1895.7963,-165 1895.7963,-165"/>
<polygon fill="#000000" stroke="#000000" points="1895.7963,-161.5001 1885.7963,-165 1895.7962,-168.5001 1895.7963,-161.5001"/>
</g>
<!-- InstituteHeaderComponent -->
<g id="node8" class="node">
<title>InstituteHeaderComponent</title>
<polygon fill="#ffffb3" stroke="#000000" points="2469.626,-122 2302.374,-122 2302.374,-86 2469.626,-86 2469.626,-122"/>
<text text-anchor="middle" x="2386" y="-99.8" font-family="Times,serif" font-size="14.00" fill="#000000">InstituteHeaderComponent</text>
</g>
<!-- InstituteHeaderComponent&#45;&gt;InstituteModule -->
<g id="edge8" class="edge">
<title>InstituteHeaderComponent&#45;&gt;InstituteModule</title>
<path fill="none" stroke="#000000" d="M2386,-122.0352C2386,-138.7344 2386,-161 2386,-161 2386,-161 1896.024,-161 1896.024,-161"/>
<polygon fill="#000000" stroke="#000000" points="1896.024,-157.5001 1886.024,-161 1896.0239,-164.5001 1896.024,-157.5001"/>
</g>
<!-- ManageInstituteComponent -->
<g id="node9" class="node">
<title>ManageInstituteComponent</title>
<polygon fill="#ffffb3" stroke="#000000" points="2284.3033,-122 2111.6967,-122 2111.6967,-86 2284.3033,-86 2284.3033,-122"/>
<text text-anchor="middle" x="2198" y="-99.8" font-family="Times,serif" font-size="14.00" fill="#000000">ManageInstituteComponent</text>
</g>
<!-- ManageInstituteComponent&#45;&gt;InstituteModule -->
<g id="edge9" class="edge">
<title>ManageInstituteComponent&#45;&gt;InstituteModule</title>
<path fill="none" stroke="#000000" d="M2198,-122.2819C2198,-137.9478 2198,-158 2198,-158 2198,-158 1896.0741,-158 1896.0741,-158"/>
<polygon fill="#000000" stroke="#000000" points="1896.0742,-154.5001 1886.0741,-158 1896.0741,-161.5001 1896.0742,-154.5001"/>
</g>
<!-- ManageLeadComponent -->
<g id="node10" class="node">
<title>ManageLeadComponent</title>
<polygon fill="#ffffb3" stroke="#000000" points="2094.4031,-122 1939.5969,-122 1939.5969,-86 2094.4031,-86 2094.4031,-122"/>
<text text-anchor="middle" x="2017" y="-99.8" font-family="Times,serif" font-size="14.00" fill="#000000">ManageLeadComponent</text>
</g>
<!-- ManageLeadComponent&#45;&gt;InstituteModule -->
<g id="edge10" class="edge">
<title>ManageLeadComponent&#45;&gt;InstituteModule</title>
<path fill="none" stroke="#000000" d="M2017,-122.1243C2017,-136.7832 2017,-155 2017,-155 2017,-155 1895.727,-155 1895.727,-155"/>
<polygon fill="#000000" stroke="#000000" points="1895.7271,-151.5001 1885.727,-155 1895.727,-158.5001 1895.7271,-151.5001"/>
</g>
<!-- ManageScheduleComponent -->
<g id="node11" class="node">
<title>ManageScheduleComponent</title>
<polygon fill="#ffffb3" stroke="#000000" points="1921.738,-122 1744.262,-122 1744.262,-86 1921.738,-86 1921.738,-122"/>
<text text-anchor="middle" x="1833" y="-99.8" font-family="Times,serif" font-size="14.00" fill="#000000">ManageScheduleComponent</text>
</g>
<!-- ManageScheduleComponent&#45;&gt;InstituteModule -->
<g id="edge11" class="edge">
<title>ManageScheduleComponent&#45;&gt;InstituteModule</title>
<path fill="none" stroke="#000000" d="M1833,-122.1061C1833,-122.1061 1833,-140.991 1833,-140.991"/>
<polygon fill="#000000" stroke="#000000" points="1829.5001,-140.9909 1833,-150.991 1836.5001,-140.991 1829.5001,-140.9909"/>
</g>
<!-- ManageStudentsComponent -->
<g id="node12" class="node">
<title>ManageStudentsComponent</title>
<polygon fill="#ffffb3" stroke="#000000" points="1726.1442,-122 1551.8558,-122 1551.8558,-86 1726.1442,-86 1726.1442,-122"/>
<text text-anchor="middle" x="1639" y="-99.8" font-family="Times,serif" font-size="14.00" fill="#000000">ManageStudentsComponent</text>
</g>
<!-- ManageStudentsComponent&#45;&gt;InstituteModule -->
<g id="edge12" class="edge">
<title>ManageStudentsComponent&#45;&gt;InstituteModule</title>
<path fill="none" stroke="#000000" d="M1639,-122.1243C1639,-136.7832 1639,-155 1639,-155 1639,-155 1770.2449,-155 1770.2449,-155"/>
<polygon fill="#000000" stroke="#000000" points="1770.2449,-158.5001 1780.2449,-155 1770.2449,-151.5001 1770.2449,-158.5001"/>
</g>
<!-- PendingStudentComponent -->
<g id="node13" class="node">
<title>PendingStudentComponent</title>
<polygon fill="#ffffb3" stroke="#000000" points="1533.9986,-122 1364.0014,-122 1364.0014,-86 1533.9986,-86 1533.9986,-122"/>
<text text-anchor="middle" x="1449" y="-99.8" font-family="Times,serif" font-size="14.00" fill="#000000">PendingStudentComponent</text>
</g>
<!-- PendingStudentComponent&#45;&gt;InstituteModule -->
<g id="edge13" class="edge">
<title>PendingStudentComponent&#45;&gt;InstituteModule</title>
<path fill="none" stroke="#000000" d="M1449,-122.2819C1449,-137.9478 1449,-158 1449,-158 1449,-158 1770.0096,-158 1770.0096,-158"/>
<polygon fill="#000000" stroke="#000000" points="1770.0096,-161.5001 1780.0096,-158 1770.0096,-154.5001 1770.0096,-161.5001"/>
</g>
<!-- StudyMaterialComponent -->
<g id="node14" class="node">
<title>StudyMaterialComponent</title>
<polygon fill="#ffffb3" stroke="#000000" points="1345.927,-122 1184.073,-122 1184.073,-86 1345.927,-86 1345.927,-122"/>
<text text-anchor="middle" x="1265" y="-99.8" font-family="Times,serif" font-size="14.00" fill="#000000">StudyMaterialComponent</text>
</g>
<!-- StudyMaterialComponent&#45;&gt;InstituteModule -->
<g id="edge14" class="edge">
<title>StudyMaterialComponent&#45;&gt;InstituteModule</title>
<path fill="none" stroke="#000000" d="M1265,-122.0352C1265,-138.7344 1265,-161 1265,-161 1265,-161 1770.074,-161 1770.074,-161"/>
<polygon fill="#000000" stroke="#000000" points="1770.074,-164.5001 1780.074,-161 1770.074,-157.5001 1770.074,-164.5001"/>
</g>
<!-- ViewAttendanceComponent -->
<g id="node15" class="node">
<title>ViewAttendanceComponent</title>
<polygon fill="#ffffb3" stroke="#000000" points="1166.8975,-122 991.1025,-122 991.1025,-86 1166.8975,-86 1166.8975,-122"/>
<text text-anchor="middle" x="1079" y="-99.8" font-family="Times,serif" font-size="14.00" fill="#000000">ViewAttendanceComponent</text>
</g>
<!-- ViewAttendanceComponent&#45;&gt;InstituteModule -->
<g id="edge15" class="edge">
<title>ViewAttendanceComponent&#45;&gt;InstituteModule</title>
<path fill="none" stroke="#000000" d="M1079,-122.302C1079,-140.2699 1079,-165 1079,-165 1079,-165 1770.2799,-165 1770.2799,-165"/>
<polygon fill="#000000" stroke="#000000" points="1770.2799,-168.5001 1780.2799,-165 1770.2798,-161.5001 1770.2799,-168.5001"/>
</g>
<!-- ViewInstituteComponent -->
<g id="node16" class="node">
<title>ViewInstituteComponent</title>
<polygon fill="#ffffb3" stroke="#000000" points="973.5337,-122 816.4663,-122 816.4663,-86 973.5337,-86 973.5337,-122"/>
<text text-anchor="middle" x="895" y="-99.8" font-family="Times,serif" font-size="14.00" fill="#000000">ViewInstituteComponent</text>
</g>
<!-- ViewInstituteComponent&#45;&gt;InstituteModule -->
<g id="edge16" class="edge">
<title>ViewInstituteComponent&#45;&gt;InstituteModule</title>
<path fill="none" stroke="#000000" d="M895,-122.1686C895,-141.0898 895,-168 895,-168 895,-168 1770.2208,-168 1770.2208,-168"/>
<polygon fill="#000000" stroke="#000000" points="1770.2208,-171.5001 1780.2208,-168 1770.2208,-164.5001 1770.2208,-171.5001"/>
</g>
<!-- ViewLeadComponent -->
<g id="node17" class="node">
<title>ViewLeadComponent</title>
<polygon fill="#ffffb3" stroke="#000000" points="797.6331,-122 658.3669,-122 658.3669,-86 797.6331,-86 797.6331,-122"/>
<text text-anchor="middle" x="728" y="-99.8" font-family="Times,serif" font-size="14.00" fill="#000000">ViewLeadComponent</text>
</g>
<!-- ViewLeadComponent&#45;&gt;InstituteModule -->
<g id="edge17" class="edge">
<title>ViewLeadComponent&#45;&gt;InstituteModule</title>
<path fill="none" stroke="#000000" d="M728,-122.308C728,-142.1455 728,-171 728,-171 728,-171 1770.0758,-171 1770.0758,-171"/>
<polygon fill="#000000" stroke="#000000" points="1770.0759,-174.5001 1780.0758,-171 1770.0758,-167.5001 1770.0759,-174.5001"/>
</g>
<!-- ViewScheduleComponent -->
<g id="node18" class="node">
<title>ViewScheduleComponent</title>
<polygon fill="#ffffb3" stroke="#000000" points="640.4678,-122 477.5322,-122 477.5322,-86 640.4678,-86 640.4678,-122"/>
<text text-anchor="middle" x="559" y="-99.8" font-family="Times,serif" font-size="14.00" fill="#000000">ViewScheduleComponent</text>
</g>
<!-- ViewScheduleComponent&#45;&gt;InstituteModule -->
<g id="edge18" class="edge">
<title>ViewScheduleComponent&#45;&gt;InstituteModule</title>
<path fill="none" stroke="#000000" d="M559,-122.0267C559,-142.7672 559,-174 559,-174 559,-174 1770.2819,-174 1770.2819,-174"/>
<polygon fill="#000000" stroke="#000000" points="1770.2819,-177.5001 1780.2819,-174 1770.2818,-170.5001 1770.2819,-177.5001"/>
</g>
<!-- ViewStudentComponent -->
<g id="node19" class="node">
<title>ViewStudentComponent</title>
<polygon fill="#ffffb3" stroke="#000000" points="459.4298,-122 304.5702,-122 304.5702,-86 459.4298,-86 459.4298,-122"/>
<text text-anchor="middle" x="382" y="-99.8" font-family="Times,serif" font-size="14.00" fill="#000000">ViewStudentComponent</text>
</g>
<!-- ViewStudentComponent&#45;&gt;InstituteModule -->
<g id="edge19" class="edge">
<title>ViewStudentComponent&#45;&gt;InstituteModule</title>
<path fill="none" stroke="#000000" d="M382,-122.2921C382,-144.2057 382,-178 382,-178 382,-178 1770.0699,-178 1770.0699,-178"/>
<polygon fill="#000000" stroke="#000000" points="1770.0699,-181.5001 1780.0699,-178 1770.0699,-174.5001 1770.0699,-181.5001"/>
</g>
<!-- CheckoutModule -->
<g id="node21" class="node">
<title>CheckoutModule</title>
<polygon fill="#8dd3c7" stroke="#000000" points="280.7064,-122 277.7064,-126 256.7064,-126 253.7064,-122 167.2936,-122 167.2936,-86 280.7064,-86 280.7064,-122"/>
<text text-anchor="middle" x="224" y="-99.8" font-family="Times,serif" font-size="14.00" fill="#000000">CheckoutModule</text>
</g>
<!-- CheckoutModule&#45;&gt;InstituteModule -->
<g id="edge20" class="edge">
<title>CheckoutModule&#45;&gt;InstituteModule</title>
<path fill="none" stroke="#000000" d="M224,-122.2479C224,-145.0179 224,-181 224,-181 224,-181 1769.924,-181 1769.924,-181"/>
<polygon fill="#000000" stroke="#000000" points="1769.924,-184.5001 1779.924,-181 1769.9239,-177.5001 1769.924,-184.5001"/>
</g>
<!-- InstRoutingModule -->
<g id="node22" class="node">
<title>InstRoutingModule</title>
<polygon fill="#8dd3c7" stroke="#000000" points="149.6638,-122 146.6638,-126 125.6638,-126 122.6638,-122 24.3362,-122 24.3362,-86 149.6638,-86 149.6638,-122"/>
<text text-anchor="middle" x="87" y="-99.8" font-family="Times,serif" font-size="14.00" fill="#000000">InstRoutingModule</text>
</g>
<!-- InstRoutingModule&#45;&gt;InstituteModule -->
<g id="edge21" class="edge">
<title>InstRoutingModule&#45;&gt;InstituteModule</title>
<path fill="none" stroke="#000000" d="M87,-122.1532C87,-145.7566 87,-184 87,-184 87,-184 1770.27,-184 1770.27,-184"/>
<polygon fill="#000000" stroke="#000000" points="1770.27,-187.5001 1780.27,-184 1770.27,-180.5001 1770.27,-187.5001"/>
</g>
</g>
</svg>
