<?xml version="1.0" encoding="UTF-8" standalone="no"?>
<!DOCTYPE svg PUBLIC "-//W3C//DTD SVG 1.1//EN"
 "http://www.w3.org/Graphics/SVG/1.1/DTD/svg11.dtd">
<!-- Generated by graphviz version 2.40.1 (20161225.0304)
 -->
<!-- Title: dependencies Pages: 1 -->
<svg width="1155pt" height="211pt"
 viewBox="0.00 0.00 1155.00 211.00" xmlns="http://www.w3.org/2000/svg" xmlns:xlink="http://www.w3.org/1999/xlink">
<g id="graph0" class="graph" transform="scale(1 1) rotate(0) translate(4 207)">
<title>dependencies</title>
<polygon fill="#ffffff" stroke="transparent" points="-4,4 -4,-207 1151,-207 1151,4 -4,4"/>
<text text-anchor="start" x="552.5091" y="-42.4" font-family="sans-serif" font-weight="bold" font-size="14.00" fill="#000000">Legend</text>
<polygon fill="#ffffb3" stroke="transparent" points="339.5,-10 339.5,-30 359.5,-30 359.5,-10 339.5,-10"/>
<text text-anchor="start" x="363.129" y="-15.4" font-family="sans-serif" font-size="14.00" fill="#000000"> &#160;Declarations</text>
<polygon fill="#8dd3c7" stroke="transparent" points="452.5,-10 452.5,-30 472.5,-30 472.5,-10 452.5,-10"/>
<text text-anchor="start" x="476.2251" y="-15.4" font-family="sans-serif" font-size="14.00" fill="#000000"> &#160;Module</text>
<polygon fill="#80b1d3" stroke="transparent" points="538.5,-10 538.5,-30 558.5,-30 558.5,-10 538.5,-10"/>
<text text-anchor="start" x="562.2812" y="-15.4" font-family="sans-serif" font-size="14.00" fill="#000000"> &#160;Bootstrap</text>
<polygon fill="#fdb462" stroke="transparent" points="635.5,-10 635.5,-30 655.5,-30 655.5,-10 635.5,-10"/>
<text text-anchor="start" x="659.1732" y="-15.4" font-family="sans-serif" font-size="14.00" fill="#000000"> &#160;Providers</text>
<polygon fill="#fb8072" stroke="transparent" points="731.5,-10 731.5,-30 751.5,-30 751.5,-10 731.5,-10"/>
<text text-anchor="start" x="755.2258" y="-15.4" font-family="sans-serif" font-size="14.00" fill="#000000"> &#160;Exports</text>
<g id="clust1" class="cluster">
<title>cluster_StudentReportModule</title>
<polygon fill="none" stroke="#000000" stroke-dasharray="1,5" points="8,-70 8,-195 1139,-195 1139,-70 8,-70"/>
</g>
<g id="clust2" class="cluster">
<title>cluster_StudentReportModule_declarations</title>
<polygon fill="none" stroke="#000000" points="226,-78 226,-130 1131,-130 1131,-78 226,-78"/>
</g>
<g id="clust8" class="cluster">
<title>cluster_StudentReportModule_imports</title>
<polygon fill="none" stroke="#000000" points="16,-78 16,-130 218,-130 218,-78 16,-78"/>
</g>
<!-- AddPTMsComponent -->
<g id="node1" class="node">
<title>AddPTMsComponent</title>
<polygon fill="#ffffb3" stroke="#000000" points="1122.6638,-122 983.3362,-122 983.3362,-86 1122.6638,-86 1122.6638,-122"/>
<text text-anchor="middle" x="1053" y="-99.8" font-family="Times,serif" font-size="14.00" fill="#000000">AddPTMsComponent</text>
</g>
<!-- StudentReportModule -->
<g id="node6" class="node">
<title>StudentReportModule</title>
<polygon fill="#8dd3c7" stroke="#000000" points="695.4313,-187 692.4313,-191 671.4313,-191 668.4313,-187 554.5687,-187 554.5687,-151 695.4313,-151 695.4313,-187"/>
<text text-anchor="middle" x="625" y="-164.8" font-family="Times,serif" font-size="14.00" fill="#000000">StudentReportModule</text>
</g>
<!-- AddPTMsComponent&#45;&gt;StudentReportModule -->
<g id="edge1" class="edge">
<title>AddPTMsComponent&#45;&gt;StudentReportModule</title>
<path fill="none" stroke="#000000" d="M1053,-122.2843C1053,-143.3211 1053,-175 1053,-175 1053,-175 705.6755,-175 705.6755,-175"/>
<polygon fill="#000000" stroke="#000000" points="705.6755,-171.5001 695.6755,-175 705.6755,-178.5001 705.6755,-171.5001"/>
</g>
<!-- ManagePTMsComponent -->
<g id="node2" class="node">
<title>ManagePTMsComponent</title>
<polygon fill="#ffffb3" stroke="#000000" points="965.1456,-122 804.8544,-122 804.8544,-86 965.1456,-86 965.1456,-122"/>
<text text-anchor="middle" x="885" y="-99.8" font-family="Times,serif" font-size="14.00" fill="#000000">ManagePTMsComponent</text>
</g>
<!-- ManagePTMsComponent&#45;&gt;StudentReportModule -->
<g id="edge2" class="edge">
<title>ManagePTMsComponent&#45;&gt;StudentReportModule</title>
<path fill="none" stroke="#000000" d="M885,-122.0225C885,-139.3734 885,-163 885,-163 885,-163 705.3597,-163 705.3597,-163"/>
<polygon fill="#000000" stroke="#000000" points="705.3598,-159.5001 695.3597,-163 705.3597,-166.5001 705.3598,-159.5001"/>
</g>
<!-- MentoringComponent -->
<g id="node3" class="node">
<title>MentoringComponent</title>
<polygon fill="#ffffb3" stroke="#000000" points="786.4341,-122 645.5659,-122 645.5659,-86 786.4341,-86 786.4341,-122"/>
<text text-anchor="middle" x="716" y="-99.8" font-family="Times,serif" font-size="14.00" fill="#000000">MentoringComponent</text>
</g>
<!-- MentoringComponent&#45;&gt;StudentReportModule -->
<g id="edge3" class="edge">
<title>MentoringComponent&#45;&gt;StudentReportModule</title>
<path fill="none" stroke="#000000" d="M670.4993,-122.1061C670.4993,-122.1061 670.4993,-140.991 670.4993,-140.991"/>
<polygon fill="#000000" stroke="#000000" points="666.9994,-140.9909 670.4993,-150.991 673.9994,-140.991 666.9994,-140.9909"/>
</g>
<!-- SheduleMentoringComponent -->
<g id="node4" class="node">
<title>SheduleMentoringComponent</title>
<polygon fill="#ffffb3" stroke="#000000" points="627.5364,-122 442.4636,-122 442.4636,-86 627.5364,-86 627.5364,-122"/>
<text text-anchor="middle" x="535" y="-99.8" font-family="Times,serif" font-size="14.00" fill="#000000">SheduleMentoringComponent</text>
</g>
<!-- SheduleMentoringComponent&#45;&gt;StudentReportModule -->
<g id="edge4" class="edge">
<title>SheduleMentoringComponent&#45;&gt;StudentReportModule</title>
<path fill="none" stroke="#000000" d="M591.2763,-122.1061C591.2763,-122.1061 591.2763,-140.991 591.2763,-140.991"/>
<polygon fill="#000000" stroke="#000000" points="587.7764,-140.9909 591.2763,-150.991 594.7764,-140.991 587.7764,-140.9909"/>
</g>
<!-- StudentReportConfComponent -->
<g id="node5" class="node">
<title>StudentReportConfComponent</title>
<polygon fill="#ffffb3" stroke="#000000" points="424.2105,-122 233.7895,-122 233.7895,-86 424.2105,-86 424.2105,-122"/>
<text text-anchor="middle" x="329" y="-99.8" font-family="Times,serif" font-size="14.00" fill="#000000">StudentReportConfComponent</text>
</g>
<!-- StudentReportConfComponent&#45;&gt;StudentReportModule -->
<g id="edge5" class="edge">
<title>StudentReportConfComponent&#45;&gt;StudentReportModule</title>
<path fill="none" stroke="#000000" d="M329,-122.0225C329,-139.3734 329,-163 329,-163 329,-163 544.4767,-163 544.4767,-163"/>
<polygon fill="#000000" stroke="#000000" points="544.4767,-166.5001 554.4767,-163 544.4767,-159.5001 544.4767,-166.5001"/>
</g>
<!-- StudentReportRoutingModule -->
<g id="node7" class="node">
<title>StudentReportRoutingModule</title>
<polygon fill="#8dd3c7" stroke="#000000" points="209.5489,-122 206.5489,-126 185.5489,-126 182.5489,-122 24.4511,-122 24.4511,-86 209.5489,-86 209.5489,-122"/>
<text text-anchor="middle" x="117" y="-99.8" font-family="Times,serif" font-size="14.00" fill="#000000">StudentReportRoutingModule</text>
</g>
<!-- StudentReportRoutingModule&#45;&gt;StudentReportModule -->
<g id="edge6" class="edge">
<title>StudentReportRoutingModule&#45;&gt;StudentReportModule</title>
<path fill="none" stroke="#000000" d="M117,-122.2843C117,-143.3211 117,-175 117,-175 117,-175 544.6316,-175 544.6316,-175"/>
<polygon fill="#000000" stroke="#000000" points="544.6317,-178.5001 554.6316,-175 544.6316,-171.5001 544.6317,-178.5001"/>
</g>
</g>
</svg>
