<?xml version="1.0" encoding="UTF-8" standalone="no"?>
<!DOCTYPE svg PUBLIC "-//W3C//DTD SVG 1.1//EN"
 "http://www.w3.org/Graphics/SVG/1.1/DTD/svg11.dtd">
<!-- Generated by graphviz version 2.40.1 (20161225.0304)
 -->
<!-- Title: dependencies Pages: 1 -->
<svg width="1721pt" height="211pt"
 viewBox="0.00 0.00 1721.00 211.00" xmlns="http://www.w3.org/2000/svg" xmlns:xlink="http://www.w3.org/1999/xlink">
<g id="graph0" class="graph" transform="scale(1 1) rotate(0) translate(4 207)">
<title>dependencies</title>
<polygon fill="#ffffff" stroke="transparent" points="-4,4 -4,-207 1717,-207 1717,4 -4,4"/>
<text text-anchor="start" x="835.5091" y="-42.4" font-family="sans-serif" font-weight="bold" font-size="14.00" fill="#000000">Legend</text>
<polygon fill="#ffffb3" stroke="transparent" points="622.5,-10 622.5,-30 642.5,-30 642.5,-10 622.5,-10"/>
<text text-anchor="start" x="646.129" y="-15.4" font-family="sans-serif" font-size="14.00" fill="#000000"> &#160;Declarations</text>
<polygon fill="#8dd3c7" stroke="transparent" points="735.5,-10 735.5,-30 755.5,-30 755.5,-10 735.5,-10"/>
<text text-anchor="start" x="759.2251" y="-15.4" font-family="sans-serif" font-size="14.00" fill="#000000"> &#160;Module</text>
<polygon fill="#80b1d3" stroke="transparent" points="821.5,-10 821.5,-30 841.5,-30 841.5,-10 821.5,-10"/>
<text text-anchor="start" x="845.2812" y="-15.4" font-family="sans-serif" font-size="14.00" fill="#000000"> &#160;Bootstrap</text>
<polygon fill="#fdb462" stroke="transparent" points="918.5,-10 918.5,-30 938.5,-30 938.5,-10 918.5,-10"/>
<text text-anchor="start" x="942.1732" y="-15.4" font-family="sans-serif" font-size="14.00" fill="#000000"> &#160;Providers</text>
<polygon fill="#fb8072" stroke="transparent" points="1014.5,-10 1014.5,-30 1034.5,-30 1034.5,-10 1014.5,-10"/>
<text text-anchor="start" x="1038.2258" y="-15.4" font-family="sans-serif" font-size="14.00" fill="#000000"> &#160;Exports</text>
<g id="clust1" class="cluster">
<title>cluster_PagesModule</title>
<polygon fill="none" stroke="#000000" stroke-dasharray="1,5" points="8,-70 8,-195 1705,-195 1705,-70 8,-70"/>
</g>
<g id="clust2" class="cluster">
<title>cluster_PagesModule_declarations</title>
<polygon fill="none" stroke="#000000" points="584,-78 584,-130 1697,-130 1697,-78 584,-78"/>
</g>
<g id="clust10" class="cluster">
<title>cluster_PagesModule_imports</title>
<polygon fill="none" stroke="#000000" points="16,-78 16,-130 576,-130 576,-78 16,-78"/>
</g>
<!-- ChangePasswordComponent -->
<g id="node1" class="node">
<title>ChangePasswordComponent</title>
<polygon fill="#ffffb3" stroke="#000000" points="1688.752,-122 1511.248,-122 1511.248,-86 1688.752,-86 1688.752,-122"/>
<text text-anchor="middle" x="1600" y="-99.8" font-family="Times,serif" font-size="14.00" fill="#000000">ChangePasswordComponent</text>
</g>
<!-- PagesModule -->
<g id="node8" class="node">
<title>PagesModule</title>
<polygon fill="#8dd3c7" stroke="#000000" points="874.2064,-187 871.2064,-191 850.2064,-191 847.2064,-187 781.7936,-187 781.7936,-151 874.2064,-151 874.2064,-187"/>
<text text-anchor="middle" x="828" y="-164.8" font-family="Times,serif" font-size="14.00" fill="#000000">PagesModule</text>
</g>
<!-- ChangePasswordComponent&#45;&gt;PagesModule -->
<g id="edge1" class="edge">
<title>ChangePasswordComponent&#45;&gt;PagesModule</title>
<path fill="none" stroke="#000000" d="M1600,-122.0908C1600,-145.1328 1600,-182 1600,-182 1600,-182 884.2665,-182 884.2665,-182"/>
<polygon fill="#000000" stroke="#000000" points="884.2665,-178.5001 874.2665,-182 884.2664,-185.5001 884.2665,-178.5001"/>
</g>
<!-- ECommerceComponent -->
<g id="node2" class="node">
<title>ECommerceComponent</title>
<polygon fill="#ffffb3" stroke="#000000" points="1492.8075,-122 1341.1925,-122 1341.1925,-86 1492.8075,-86 1492.8075,-122"/>
<text text-anchor="middle" x="1417" y="-99.8" font-family="Times,serif" font-size="14.00" fill="#000000">ECommerceComponent</text>
</g>
<!-- ECommerceComponent&#45;&gt;PagesModule -->
<g id="edge2" class="edge">
<title>ECommerceComponent&#45;&gt;PagesModule</title>
<path fill="none" stroke="#000000" d="M1417,-122.2843C1417,-143.3211 1417,-175 1417,-175 1417,-175 884.2178,-175 884.2178,-175"/>
<polygon fill="#000000" stroke="#000000" points="884.2179,-171.5001 874.2178,-175 884.2178,-178.5001 884.2179,-171.5001"/>
</g>
<!-- HomeComponent -->
<g id="node3" class="node">
<title>HomeComponent</title>
<polygon fill="#ffffb3" stroke="#000000" points="1323.5451,-122 1208.4549,-122 1208.4549,-86 1323.5451,-86 1323.5451,-122"/>
<text text-anchor="middle" x="1266" y="-99.8" font-family="Times,serif" font-size="14.00" fill="#000000">HomeComponent</text>
</g>
<!-- HomeComponent&#45;&gt;PagesModule -->
<g id="edge3" class="edge">
<title>HomeComponent&#45;&gt;PagesModule</title>
<path fill="none" stroke="#000000" d="M1266,-122.1061C1266,-141.3391 1266,-169 1266,-169 1266,-169 884.459,-169 884.459,-169"/>
<polygon fill="#000000" stroke="#000000" points="884.459,-165.5001 874.459,-169 884.459,-172.5001 884.459,-165.5001"/>
</g>
<!-- MembershipComponent -->
<g id="node4" class="node">
<title>MembershipComponent</title>
<polygon fill="#ffffb3" stroke="#000000" points="1190.0926,-122 1037.9074,-122 1037.9074,-86 1190.0926,-86 1190.0926,-122"/>
<text text-anchor="middle" x="1114" y="-99.8" font-family="Times,serif" font-size="14.00" fill="#000000">MembershipComponent</text>
</g>
<!-- MembershipComponent&#45;&gt;PagesModule -->
<g id="edge4" class="edge">
<title>MembershipComponent&#45;&gt;PagesModule</title>
<path fill="none" stroke="#000000" d="M1114,-122.0225C1114,-139.3734 1114,-163 1114,-163 1114,-163 884.2687,-163 884.2687,-163"/>
<polygon fill="#000000" stroke="#000000" points="884.2687,-159.5001 874.2687,-163 884.2687,-166.5001 884.2687,-159.5001"/>
</g>
<!-- PagesComponent -->
<g id="node5" class="node">
<title>PagesComponent</title>
<polygon fill="#ffffb3" stroke="#000000" points="1019.9888,-122 906.0112,-122 906.0112,-86 1019.9888,-86 1019.9888,-122"/>
<text text-anchor="middle" x="963" y="-99.8" font-family="Times,serif" font-size="14.00" fill="#000000">PagesComponent</text>
</g>
<!-- PagesComponent&#45;&gt;PagesModule -->
<g id="edge5" class="edge">
<title>PagesComponent&#45;&gt;PagesModule</title>
<path fill="none" stroke="#000000" d="M963,-122.2396C963,-137.5706 963,-157 963,-157 963,-157 884.4593,-157 884.4593,-157"/>
<polygon fill="#000000" stroke="#000000" points="884.4594,-153.5001 874.4593,-157 884.4593,-160.5001 884.4594,-153.5001"/>
</g>
<!-- ProfileComponent -->
<g id="node6" class="node">
<title>ProfileComponent</title>
<polygon fill="#ffffb3" stroke="#000000" points="887.9328,-122 768.0672,-122 768.0672,-86 887.9328,-86 887.9328,-122"/>
<text text-anchor="middle" x="828" y="-99.8" font-family="Times,serif" font-size="14.00" fill="#000000">ProfileComponent</text>
</g>
<!-- ProfileComponent&#45;&gt;PagesModule -->
<g id="edge6" class="edge">
<title>ProfileComponent&#45;&gt;PagesModule</title>
<path fill="none" stroke="#000000" d="M828,-122.1061C828,-122.1061 828,-140.991 828,-140.991"/>
<polygon fill="#000000" stroke="#000000" points="824.5001,-140.9909 828,-150.991 831.5001,-140.991 824.5001,-140.9909"/>
</g>
<!-- SmsRechargeComponent -->
<g id="node7" class="node">
<title>SmsRechargeComponent</title>
<polygon fill="#ffffb3" stroke="#000000" points="750.3061,-122 591.6939,-122 591.6939,-86 750.3061,-86 750.3061,-122"/>
<text text-anchor="middle" x="671" y="-99.8" font-family="Times,serif" font-size="14.00" fill="#000000">SmsRechargeComponent</text>
</g>
<!-- SmsRechargeComponent&#45;&gt;PagesModule -->
<g id="edge7" class="edge">
<title>SmsRechargeComponent&#45;&gt;PagesModule</title>
<path fill="none" stroke="#000000" d="M671,-122.2396C671,-137.5706 671,-157 671,-157 671,-157 771.744,-157 771.744,-157"/>
<polygon fill="#000000" stroke="#000000" points="771.744,-160.5001 781.744,-157 771.7439,-153.5001 771.744,-160.5001"/>
</g>
<!-- CheckoutModule -->
<g id="node9" class="node">
<title>CheckoutModule</title>
<polygon fill="#8dd3c7" stroke="#000000" points="567.7064,-122 564.7064,-126 543.7064,-126 540.7064,-122 454.2936,-122 454.2936,-86 567.7064,-86 567.7064,-122"/>
<text text-anchor="middle" x="511" y="-99.8" font-family="Times,serif" font-size="14.00" fill="#000000">CheckoutModule</text>
</g>
<!-- CheckoutModule&#45;&gt;PagesModule -->
<g id="edge8" class="edge">
<title>CheckoutModule&#45;&gt;PagesModule</title>
<path fill="none" stroke="#000000" d="M511,-122.0225C511,-139.3734 511,-163 511,-163 511,-163 771.566,-163 771.566,-163"/>
<polygon fill="#000000" stroke="#000000" points="771.566,-166.5001 781.566,-163 771.566,-159.5001 771.566,-166.5001"/>
</g>
<!-- MiscellaneousModule -->
<g id="node10" class="node">
<title>MiscellaneousModule</title>
<polygon fill="#8dd3c7" stroke="#000000" points="436.4144,-122 433.4144,-126 412.4144,-126 409.4144,-122 295.5856,-122 295.5856,-86 436.4144,-86 436.4144,-122"/>
<text text-anchor="middle" x="366" y="-99.8" font-family="Times,serif" font-size="14.00" fill="#000000">MiscellaneousModule</text>
</g>
<!-- MiscellaneousModule&#45;&gt;PagesModule -->
<g id="edge9" class="edge">
<title>MiscellaneousModule&#45;&gt;PagesModule</title>
<path fill="none" stroke="#000000" d="M366,-122.1061C366,-141.3391 366,-169 366,-169 366,-169 771.5864,-169 771.5864,-169"/>
<polygon fill="#000000" stroke="#000000" points="771.5864,-172.5001 781.5864,-169 771.5863,-165.5001 771.5864,-172.5001"/>
</g>
<!-- PagesRoutingModule -->
<g id="node11" class="node">
<title>PagesRoutingModule</title>
<polygon fill="#8dd3c7" stroke="#000000" points="277.8244,-122 274.8244,-126 253.8244,-126 250.8244,-122 140.1756,-122 140.1756,-86 277.8244,-86 277.8244,-122"/>
<text text-anchor="middle" x="209" y="-99.8" font-family="Times,serif" font-size="14.00" fill="#000000">PagesRoutingModule</text>
</g>
<!-- PagesRoutingModule&#45;&gt;PagesModule -->
<g id="edge10" class="edge">
<title>PagesRoutingModule&#45;&gt;PagesModule</title>
<path fill="none" stroke="#000000" d="M209,-122.2843C209,-143.3211 209,-175 209,-175 209,-175 771.7275,-175 771.7275,-175"/>
<polygon fill="#000000" stroke="#000000" points="771.7276,-178.5001 781.7275,-175 771.7275,-171.5001 771.7276,-178.5001"/>
</g>
<!-- ThemeModule -->
<g id="node12" class="node">
<title>ThemeModule</title>
<polygon fill="#8dd3c7" stroke="#000000" points="122.4231,-122 119.4231,-126 98.4231,-126 95.4231,-122 23.5769,-122 23.5769,-86 122.4231,-86 122.4231,-122"/>
<text text-anchor="middle" x="73" y="-99.8" font-family="Times,serif" font-size="14.00" fill="#000000">ThemeModule</text>
</g>
<!-- ThemeModule&#45;&gt;PagesModule -->
<g id="edge11" class="edge">
<title>ThemeModule&#45;&gt;PagesModule</title>
<path fill="none" stroke="#000000" d="M73,-122.0908C73,-145.1328 73,-182 73,-182 73,-182 771.6249,-182 771.6249,-182"/>
<polygon fill="#000000" stroke="#000000" points="771.6249,-185.5001 781.6249,-182 771.6249,-178.5001 771.6249,-185.5001"/>
</g>
</g>
</svg>
